G04 #@! TF.GenerationSoftware,KiCad,Pcbnew,8.0.7*
G04 #@! TF.CreationDate,2025-05-25T12:57:58+02:00*
G04 #@! TF.ProjectId,Wave,57617665-2e6b-4696-9361-645f70636258,rev?*
G04 #@! TF.SameCoordinates,Original*
G04 #@! TF.FileFunction,Legend,Top*
G04 #@! TF.FilePolarity,Positive*
%FSLAX46Y46*%
G04 Gerber Fmt 4.6, Leading zero omitted, Abs format (unit mm)*
G04 Created by KiCad (PCBNEW 8.0.7) date 2025-05-25 12:57:58*
%MOMM*%
%LPD*%
G01*
G04 APERTURE LIST*
%ADD10C,0.150000*%
%ADD11C,0.120000*%
%ADD12C,0.100000*%
%ADD13R,1.700000X1.700000*%
%ADD14O,1.700000X1.700000*%
%ADD15R,1.350000X1.350000*%
%ADD16O,1.350000X1.350000*%
%ADD17C,1.700000*%
%ADD18O,1.600000X1.600000*%
%ADD19R,1.600000X1.600000*%
G04 APERTURE END LIST*
D10*
X99432700Y-147078458D02*
X99468414Y-146971316D01*
X99468414Y-146971316D02*
X99468414Y-146792744D01*
X99468414Y-146792744D02*
X99432700Y-146721316D01*
X99432700Y-146721316D02*
X99396985Y-146685601D01*
X99396985Y-146685601D02*
X99325557Y-146649887D01*
X99325557Y-146649887D02*
X99254128Y-146649887D01*
X99254128Y-146649887D02*
X99182700Y-146685601D01*
X99182700Y-146685601D02*
X99146985Y-146721316D01*
X99146985Y-146721316D02*
X99111271Y-146792744D01*
X99111271Y-146792744D02*
X99075557Y-146935601D01*
X99075557Y-146935601D02*
X99039842Y-147007030D01*
X99039842Y-147007030D02*
X99004128Y-147042744D01*
X99004128Y-147042744D02*
X98932700Y-147078458D01*
X98932700Y-147078458D02*
X98861271Y-147078458D01*
X98861271Y-147078458D02*
X98789842Y-147042744D01*
X98789842Y-147042744D02*
X98754128Y-147007030D01*
X98754128Y-147007030D02*
X98718414Y-146935601D01*
X98718414Y-146935601D02*
X98718414Y-146757030D01*
X98718414Y-146757030D02*
X98754128Y-146649887D01*
X99468414Y-146328458D02*
X98718414Y-146328458D01*
X98718414Y-146328458D02*
X98718414Y-146149887D01*
X98718414Y-146149887D02*
X98754128Y-146042744D01*
X98754128Y-146042744D02*
X98825557Y-145971315D01*
X98825557Y-145971315D02*
X98896985Y-145935601D01*
X98896985Y-145935601D02*
X99039842Y-145899887D01*
X99039842Y-145899887D02*
X99146985Y-145899887D01*
X99146985Y-145899887D02*
X99289842Y-145935601D01*
X99289842Y-145935601D02*
X99361271Y-145971315D01*
X99361271Y-145971315D02*
X99432700Y-146042744D01*
X99432700Y-146042744D02*
X99468414Y-146149887D01*
X99468414Y-146149887D02*
X99468414Y-146328458D01*
X99254128Y-145614172D02*
X99254128Y-145257030D01*
X99468414Y-145685601D02*
X98718414Y-145435601D01*
X98718414Y-145435601D02*
X99468414Y-145185601D01*
X99432700Y-144399886D02*
X99468414Y-144292744D01*
X99468414Y-144292744D02*
X99468414Y-144114172D01*
X99468414Y-144114172D02*
X99432700Y-144042744D01*
X99432700Y-144042744D02*
X99396985Y-144007029D01*
X99396985Y-144007029D02*
X99325557Y-143971315D01*
X99325557Y-143971315D02*
X99254128Y-143971315D01*
X99254128Y-143971315D02*
X99182700Y-144007029D01*
X99182700Y-144007029D02*
X99146985Y-144042744D01*
X99146985Y-144042744D02*
X99111271Y-144114172D01*
X99111271Y-144114172D02*
X99075557Y-144257029D01*
X99075557Y-144257029D02*
X99039842Y-144328458D01*
X99039842Y-144328458D02*
X99004128Y-144364172D01*
X99004128Y-144364172D02*
X98932700Y-144399886D01*
X98932700Y-144399886D02*
X98861271Y-144399886D01*
X98861271Y-144399886D02*
X98789842Y-144364172D01*
X98789842Y-144364172D02*
X98754128Y-144328458D01*
X98754128Y-144328458D02*
X98718414Y-144257029D01*
X98718414Y-144257029D02*
X98718414Y-144078458D01*
X98718414Y-144078458D02*
X98754128Y-143971315D01*
X99396985Y-143221315D02*
X99432700Y-143257029D01*
X99432700Y-143257029D02*
X99468414Y-143364172D01*
X99468414Y-143364172D02*
X99468414Y-143435600D01*
X99468414Y-143435600D02*
X99432700Y-143542743D01*
X99432700Y-143542743D02*
X99361271Y-143614172D01*
X99361271Y-143614172D02*
X99289842Y-143649886D01*
X99289842Y-143649886D02*
X99146985Y-143685600D01*
X99146985Y-143685600D02*
X99039842Y-143685600D01*
X99039842Y-143685600D02*
X98896985Y-143649886D01*
X98896985Y-143649886D02*
X98825557Y-143614172D01*
X98825557Y-143614172D02*
X98754128Y-143542743D01*
X98754128Y-143542743D02*
X98718414Y-143435600D01*
X98718414Y-143435600D02*
X98718414Y-143364172D01*
X98718414Y-143364172D02*
X98754128Y-143257029D01*
X98754128Y-143257029D02*
X98789842Y-143221315D01*
X99468414Y-142542743D02*
X99468414Y-142899886D01*
X99468414Y-142899886D02*
X98718414Y-142899886D01*
X98718414Y-139649884D02*
X98718414Y-140007027D01*
X98718414Y-140007027D02*
X99075557Y-140042741D01*
X99075557Y-140042741D02*
X99039842Y-140007027D01*
X99039842Y-140007027D02*
X99004128Y-139935599D01*
X99004128Y-139935599D02*
X99004128Y-139757027D01*
X99004128Y-139757027D02*
X99039842Y-139685599D01*
X99039842Y-139685599D02*
X99075557Y-139649884D01*
X99075557Y-139649884D02*
X99146985Y-139614170D01*
X99146985Y-139614170D02*
X99325557Y-139614170D01*
X99325557Y-139614170D02*
X99396985Y-139649884D01*
X99396985Y-139649884D02*
X99432700Y-139685599D01*
X99432700Y-139685599D02*
X99468414Y-139757027D01*
X99468414Y-139757027D02*
X99468414Y-139935599D01*
X99468414Y-139935599D02*
X99432700Y-140007027D01*
X99432700Y-140007027D02*
X99396985Y-140042741D01*
X98968414Y-139364170D02*
X99468414Y-139185598D01*
X99468414Y-139185598D02*
X98968414Y-139007027D01*
X98754128Y-137757026D02*
X98718414Y-137828455D01*
X98718414Y-137828455D02*
X98718414Y-137935597D01*
X98718414Y-137935597D02*
X98754128Y-138042740D01*
X98754128Y-138042740D02*
X98825557Y-138114169D01*
X98825557Y-138114169D02*
X98896985Y-138149883D01*
X98896985Y-138149883D02*
X99039842Y-138185597D01*
X99039842Y-138185597D02*
X99146985Y-138185597D01*
X99146985Y-138185597D02*
X99289842Y-138149883D01*
X99289842Y-138149883D02*
X99361271Y-138114169D01*
X99361271Y-138114169D02*
X99432700Y-138042740D01*
X99432700Y-138042740D02*
X99468414Y-137935597D01*
X99468414Y-137935597D02*
X99468414Y-137864169D01*
X99468414Y-137864169D02*
X99432700Y-137757026D01*
X99432700Y-137757026D02*
X99396985Y-137721312D01*
X99396985Y-137721312D02*
X99146985Y-137721312D01*
X99146985Y-137721312D02*
X99146985Y-137864169D01*
X99468414Y-137399883D02*
X98718414Y-137399883D01*
X98718414Y-137399883D02*
X99468414Y-136971312D01*
X99468414Y-136971312D02*
X98718414Y-136971312D01*
X99468414Y-136614169D02*
X98718414Y-136614169D01*
X98718414Y-136614169D02*
X98718414Y-136435598D01*
X98718414Y-136435598D02*
X98754128Y-136328455D01*
X98754128Y-136328455D02*
X98825557Y-136257026D01*
X98825557Y-136257026D02*
X98896985Y-136221312D01*
X98896985Y-136221312D02*
X99039842Y-136185598D01*
X99039842Y-136185598D02*
X99146985Y-136185598D01*
X99146985Y-136185598D02*
X99289842Y-136221312D01*
X99289842Y-136221312D02*
X99361271Y-136257026D01*
X99361271Y-136257026D02*
X99432700Y-136328455D01*
X99432700Y-136328455D02*
X99468414Y-136435598D01*
X99468414Y-136435598D02*
X99468414Y-136614169D01*
X112391819Y-112947220D02*
X111391819Y-112947220D01*
X111868009Y-112947220D02*
X111868009Y-112375792D01*
X112391819Y-112375792D02*
X111391819Y-112375792D01*
X111391819Y-111994839D02*
X112391819Y-111328173D01*
X111391819Y-111328173D02*
X112391819Y-111994839D01*
X111391819Y-111042458D02*
X111391819Y-110375792D01*
X111391819Y-110375792D02*
X112391819Y-110804363D01*
X112391819Y-109471030D02*
X112391819Y-110042458D01*
X112391819Y-109756744D02*
X111391819Y-109756744D01*
X111391819Y-109756744D02*
X111534676Y-109851982D01*
X111534676Y-109851982D02*
X111629914Y-109947220D01*
X111629914Y-109947220D02*
X111677533Y-110042458D01*
X112391819Y-108518649D02*
X112391819Y-109090077D01*
X112391819Y-108804363D02*
X111391819Y-108804363D01*
X111391819Y-108804363D02*
X111534676Y-108899601D01*
X111534676Y-108899601D02*
X111629914Y-108994839D01*
X111629914Y-108994839D02*
X111677533Y-109090077D01*
X98754128Y-130139887D02*
X98718414Y-130211316D01*
X98718414Y-130211316D02*
X98718414Y-130318458D01*
X98718414Y-130318458D02*
X98754128Y-130425601D01*
X98754128Y-130425601D02*
X98825557Y-130497030D01*
X98825557Y-130497030D02*
X98896985Y-130532744D01*
X98896985Y-130532744D02*
X99039842Y-130568458D01*
X99039842Y-130568458D02*
X99146985Y-130568458D01*
X99146985Y-130568458D02*
X99289842Y-130532744D01*
X99289842Y-130532744D02*
X99361271Y-130497030D01*
X99361271Y-130497030D02*
X99432700Y-130425601D01*
X99432700Y-130425601D02*
X99468414Y-130318458D01*
X99468414Y-130318458D02*
X99468414Y-130247030D01*
X99468414Y-130247030D02*
X99432700Y-130139887D01*
X99432700Y-130139887D02*
X99396985Y-130104173D01*
X99396985Y-130104173D02*
X99146985Y-130104173D01*
X99146985Y-130104173D02*
X99146985Y-130247030D01*
X99468414Y-129782744D02*
X98718414Y-129782744D01*
X98718414Y-129782744D02*
X98718414Y-129604173D01*
X98718414Y-129604173D02*
X98754128Y-129497030D01*
X98754128Y-129497030D02*
X98825557Y-129425601D01*
X98825557Y-129425601D02*
X98896985Y-129389887D01*
X98896985Y-129389887D02*
X99039842Y-129354173D01*
X99039842Y-129354173D02*
X99146985Y-129354173D01*
X99146985Y-129354173D02*
X99289842Y-129389887D01*
X99289842Y-129389887D02*
X99361271Y-129425601D01*
X99361271Y-129425601D02*
X99432700Y-129497030D01*
X99432700Y-129497030D02*
X99468414Y-129604173D01*
X99468414Y-129604173D02*
X99468414Y-129782744D01*
X99468414Y-129032744D02*
X98718414Y-129032744D01*
X98718414Y-129032744D02*
X99468414Y-128604173D01*
X99468414Y-128604173D02*
X98718414Y-128604173D01*
X99468414Y-127675601D02*
X98718414Y-127675601D01*
X98718414Y-127675601D02*
X98718414Y-127497030D01*
X98718414Y-127497030D02*
X98754128Y-127389887D01*
X98754128Y-127389887D02*
X98825557Y-127318458D01*
X98825557Y-127318458D02*
X98896985Y-127282744D01*
X98896985Y-127282744D02*
X99039842Y-127247030D01*
X99039842Y-127247030D02*
X99146985Y-127247030D01*
X99146985Y-127247030D02*
X99289842Y-127282744D01*
X99289842Y-127282744D02*
X99361271Y-127318458D01*
X99361271Y-127318458D02*
X99432700Y-127389887D01*
X99432700Y-127389887D02*
X99468414Y-127497030D01*
X99468414Y-127497030D02*
X99468414Y-127675601D01*
X99468414Y-126925601D02*
X98718414Y-126925601D01*
X99468414Y-126568458D02*
X98718414Y-126568458D01*
X98718414Y-126568458D02*
X99468414Y-126139887D01*
X99468414Y-126139887D02*
X98718414Y-126139887D01*
X98718414Y-124854172D02*
X98718414Y-125211315D01*
X98718414Y-125211315D02*
X99075557Y-125247029D01*
X99075557Y-125247029D02*
X99039842Y-125211315D01*
X99039842Y-125211315D02*
X99004128Y-125139887D01*
X99004128Y-125139887D02*
X99004128Y-124961315D01*
X99004128Y-124961315D02*
X99039842Y-124889887D01*
X99039842Y-124889887D02*
X99075557Y-124854172D01*
X99075557Y-124854172D02*
X99146985Y-124818458D01*
X99146985Y-124818458D02*
X99325557Y-124818458D01*
X99325557Y-124818458D02*
X99396985Y-124854172D01*
X99396985Y-124854172D02*
X99432700Y-124889887D01*
X99432700Y-124889887D02*
X99468414Y-124961315D01*
X99468414Y-124961315D02*
X99468414Y-125139887D01*
X99468414Y-125139887D02*
X99432700Y-125211315D01*
X99432700Y-125211315D02*
X99396985Y-125247029D01*
X98968414Y-124568458D02*
X99468414Y-124389886D01*
X99468414Y-124389886D02*
X98968414Y-124211315D01*
X99940700Y-163588458D02*
X99976414Y-163481316D01*
X99976414Y-163481316D02*
X99976414Y-163302744D01*
X99976414Y-163302744D02*
X99940700Y-163231316D01*
X99940700Y-163231316D02*
X99904985Y-163195601D01*
X99904985Y-163195601D02*
X99833557Y-163159887D01*
X99833557Y-163159887D02*
X99762128Y-163159887D01*
X99762128Y-163159887D02*
X99690700Y-163195601D01*
X99690700Y-163195601D02*
X99654985Y-163231316D01*
X99654985Y-163231316D02*
X99619271Y-163302744D01*
X99619271Y-163302744D02*
X99583557Y-163445601D01*
X99583557Y-163445601D02*
X99547842Y-163517030D01*
X99547842Y-163517030D02*
X99512128Y-163552744D01*
X99512128Y-163552744D02*
X99440700Y-163588458D01*
X99440700Y-163588458D02*
X99369271Y-163588458D01*
X99369271Y-163588458D02*
X99297842Y-163552744D01*
X99297842Y-163552744D02*
X99262128Y-163517030D01*
X99262128Y-163517030D02*
X99226414Y-163445601D01*
X99226414Y-163445601D02*
X99226414Y-163267030D01*
X99226414Y-163267030D02*
X99262128Y-163159887D01*
X99976414Y-162838458D02*
X99226414Y-162838458D01*
X99226414Y-162838458D02*
X99226414Y-162659887D01*
X99226414Y-162659887D02*
X99262128Y-162552744D01*
X99262128Y-162552744D02*
X99333557Y-162481315D01*
X99333557Y-162481315D02*
X99404985Y-162445601D01*
X99404985Y-162445601D02*
X99547842Y-162409887D01*
X99547842Y-162409887D02*
X99654985Y-162409887D01*
X99654985Y-162409887D02*
X99797842Y-162445601D01*
X99797842Y-162445601D02*
X99869271Y-162481315D01*
X99869271Y-162481315D02*
X99940700Y-162552744D01*
X99940700Y-162552744D02*
X99976414Y-162659887D01*
X99976414Y-162659887D02*
X99976414Y-162838458D01*
X99762128Y-162124172D02*
X99762128Y-161767030D01*
X99976414Y-162195601D02*
X99226414Y-161945601D01*
X99226414Y-161945601D02*
X99976414Y-161695601D01*
X99940700Y-160909886D02*
X99976414Y-160802744D01*
X99976414Y-160802744D02*
X99976414Y-160624172D01*
X99976414Y-160624172D02*
X99940700Y-160552744D01*
X99940700Y-160552744D02*
X99904985Y-160517029D01*
X99904985Y-160517029D02*
X99833557Y-160481315D01*
X99833557Y-160481315D02*
X99762128Y-160481315D01*
X99762128Y-160481315D02*
X99690700Y-160517029D01*
X99690700Y-160517029D02*
X99654985Y-160552744D01*
X99654985Y-160552744D02*
X99619271Y-160624172D01*
X99619271Y-160624172D02*
X99583557Y-160767029D01*
X99583557Y-160767029D02*
X99547842Y-160838458D01*
X99547842Y-160838458D02*
X99512128Y-160874172D01*
X99512128Y-160874172D02*
X99440700Y-160909886D01*
X99440700Y-160909886D02*
X99369271Y-160909886D01*
X99369271Y-160909886D02*
X99297842Y-160874172D01*
X99297842Y-160874172D02*
X99262128Y-160838458D01*
X99262128Y-160838458D02*
X99226414Y-160767029D01*
X99226414Y-160767029D02*
X99226414Y-160588458D01*
X99226414Y-160588458D02*
X99262128Y-160481315D01*
X99904985Y-159731315D02*
X99940700Y-159767029D01*
X99940700Y-159767029D02*
X99976414Y-159874172D01*
X99976414Y-159874172D02*
X99976414Y-159945600D01*
X99976414Y-159945600D02*
X99940700Y-160052743D01*
X99940700Y-160052743D02*
X99869271Y-160124172D01*
X99869271Y-160124172D02*
X99797842Y-160159886D01*
X99797842Y-160159886D02*
X99654985Y-160195600D01*
X99654985Y-160195600D02*
X99547842Y-160195600D01*
X99547842Y-160195600D02*
X99404985Y-160159886D01*
X99404985Y-160159886D02*
X99333557Y-160124172D01*
X99333557Y-160124172D02*
X99262128Y-160052743D01*
X99262128Y-160052743D02*
X99226414Y-159945600D01*
X99226414Y-159945600D02*
X99226414Y-159874172D01*
X99226414Y-159874172D02*
X99262128Y-159767029D01*
X99262128Y-159767029D02*
X99297842Y-159731315D01*
X99976414Y-159052743D02*
X99976414Y-159409886D01*
X99976414Y-159409886D02*
X99226414Y-159409886D01*
X99226414Y-156159884D02*
X99226414Y-156517027D01*
X99226414Y-156517027D02*
X99583557Y-156552741D01*
X99583557Y-156552741D02*
X99547842Y-156517027D01*
X99547842Y-156517027D02*
X99512128Y-156445599D01*
X99512128Y-156445599D02*
X99512128Y-156267027D01*
X99512128Y-156267027D02*
X99547842Y-156195599D01*
X99547842Y-156195599D02*
X99583557Y-156159884D01*
X99583557Y-156159884D02*
X99654985Y-156124170D01*
X99654985Y-156124170D02*
X99833557Y-156124170D01*
X99833557Y-156124170D02*
X99904985Y-156159884D01*
X99904985Y-156159884D02*
X99940700Y-156195599D01*
X99940700Y-156195599D02*
X99976414Y-156267027D01*
X99976414Y-156267027D02*
X99976414Y-156445599D01*
X99976414Y-156445599D02*
X99940700Y-156517027D01*
X99940700Y-156517027D02*
X99904985Y-156552741D01*
X99476414Y-155874170D02*
X99976414Y-155695598D01*
X99976414Y-155695598D02*
X99476414Y-155517027D01*
X99262128Y-154267026D02*
X99226414Y-154338455D01*
X99226414Y-154338455D02*
X99226414Y-154445597D01*
X99226414Y-154445597D02*
X99262128Y-154552740D01*
X99262128Y-154552740D02*
X99333557Y-154624169D01*
X99333557Y-154624169D02*
X99404985Y-154659883D01*
X99404985Y-154659883D02*
X99547842Y-154695597D01*
X99547842Y-154695597D02*
X99654985Y-154695597D01*
X99654985Y-154695597D02*
X99797842Y-154659883D01*
X99797842Y-154659883D02*
X99869271Y-154624169D01*
X99869271Y-154624169D02*
X99940700Y-154552740D01*
X99940700Y-154552740D02*
X99976414Y-154445597D01*
X99976414Y-154445597D02*
X99976414Y-154374169D01*
X99976414Y-154374169D02*
X99940700Y-154267026D01*
X99940700Y-154267026D02*
X99904985Y-154231312D01*
X99904985Y-154231312D02*
X99654985Y-154231312D01*
X99654985Y-154231312D02*
X99654985Y-154374169D01*
X99976414Y-153909883D02*
X99226414Y-153909883D01*
X99226414Y-153909883D02*
X99976414Y-153481312D01*
X99976414Y-153481312D02*
X99226414Y-153481312D01*
X99976414Y-153124169D02*
X99226414Y-153124169D01*
X99226414Y-153124169D02*
X99226414Y-152945598D01*
X99226414Y-152945598D02*
X99262128Y-152838455D01*
X99262128Y-152838455D02*
X99333557Y-152767026D01*
X99333557Y-152767026D02*
X99404985Y-152731312D01*
X99404985Y-152731312D02*
X99547842Y-152695598D01*
X99547842Y-152695598D02*
X99654985Y-152695598D01*
X99654985Y-152695598D02*
X99797842Y-152731312D01*
X99797842Y-152731312D02*
X99869271Y-152767026D01*
X99869271Y-152767026D02*
X99940700Y-152838455D01*
X99940700Y-152838455D02*
X99976414Y-152945598D01*
X99976414Y-152945598D02*
X99976414Y-153124169D01*
X113489931Y-147824649D02*
X112966121Y-147824649D01*
X112966121Y-147824649D02*
X112870883Y-147872268D01*
X112870883Y-147872268D02*
X112823264Y-147967506D01*
X112823264Y-147967506D02*
X112823264Y-148157982D01*
X112823264Y-148157982D02*
X112870883Y-148253220D01*
X113442312Y-147824649D02*
X113489931Y-147919887D01*
X113489931Y-147919887D02*
X113489931Y-148157982D01*
X113489931Y-148157982D02*
X113442312Y-148253220D01*
X113442312Y-148253220D02*
X113347073Y-148300839D01*
X113347073Y-148300839D02*
X113251835Y-148300839D01*
X113251835Y-148300839D02*
X113156597Y-148253220D01*
X113156597Y-148253220D02*
X113108978Y-148157982D01*
X113108978Y-148157982D02*
X113108978Y-147919887D01*
X113108978Y-147919887D02*
X113061359Y-147824649D01*
X113489931Y-147348458D02*
X112823264Y-147348458D01*
X113013740Y-147348458D02*
X112918502Y-147300839D01*
X112918502Y-147300839D02*
X112870883Y-147253220D01*
X112870883Y-147253220D02*
X112823264Y-147157982D01*
X112823264Y-147157982D02*
X112823264Y-147062744D01*
X113489931Y-146300839D02*
X112489931Y-146300839D01*
X113442312Y-146300839D02*
X113489931Y-146396077D01*
X113489931Y-146396077D02*
X113489931Y-146586553D01*
X113489931Y-146586553D02*
X113442312Y-146681791D01*
X113442312Y-146681791D02*
X113394692Y-146729410D01*
X113394692Y-146729410D02*
X113299454Y-146777029D01*
X113299454Y-146777029D02*
X113013740Y-146777029D01*
X113013740Y-146777029D02*
X112918502Y-146729410D01*
X112918502Y-146729410D02*
X112870883Y-146681791D01*
X112870883Y-146681791D02*
X112823264Y-146586553D01*
X112823264Y-146586553D02*
X112823264Y-146396077D01*
X112823264Y-146396077D02*
X112870883Y-146300839D01*
X112823264Y-145396077D02*
X113489931Y-145396077D01*
X112823264Y-145824648D02*
X113347073Y-145824648D01*
X113347073Y-145824648D02*
X113442312Y-145777029D01*
X113442312Y-145777029D02*
X113489931Y-145681791D01*
X113489931Y-145681791D02*
X113489931Y-145538934D01*
X113489931Y-145538934D02*
X113442312Y-145443696D01*
X113442312Y-145443696D02*
X113394692Y-145396077D01*
X113489931Y-144919886D02*
X112823264Y-144919886D01*
X112489931Y-144919886D02*
X112537550Y-144967505D01*
X112537550Y-144967505D02*
X112585169Y-144919886D01*
X112585169Y-144919886D02*
X112537550Y-144872267D01*
X112537550Y-144872267D02*
X112489931Y-144919886D01*
X112489931Y-144919886D02*
X112585169Y-144919886D01*
X112823264Y-144443696D02*
X113489931Y-144443696D01*
X112918502Y-144443696D02*
X112870883Y-144396077D01*
X112870883Y-144396077D02*
X112823264Y-144300839D01*
X112823264Y-144300839D02*
X112823264Y-144157982D01*
X112823264Y-144157982D02*
X112870883Y-144062744D01*
X112870883Y-144062744D02*
X112966121Y-144015125D01*
X112966121Y-144015125D02*
X113489931Y-144015125D01*
X113489931Y-143396077D02*
X113442312Y-143491315D01*
X113442312Y-143491315D02*
X113394692Y-143538934D01*
X113394692Y-143538934D02*
X113299454Y-143586553D01*
X113299454Y-143586553D02*
X113013740Y-143586553D01*
X113013740Y-143586553D02*
X112918502Y-143538934D01*
X112918502Y-143538934D02*
X112870883Y-143491315D01*
X112870883Y-143491315D02*
X112823264Y-143396077D01*
X112823264Y-143396077D02*
X112823264Y-143253220D01*
X112823264Y-143253220D02*
X112870883Y-143157982D01*
X112870883Y-143157982D02*
X112918502Y-143110363D01*
X112918502Y-143110363D02*
X113013740Y-143062744D01*
X113013740Y-143062744D02*
X113299454Y-143062744D01*
X113299454Y-143062744D02*
X113394692Y-143110363D01*
X113394692Y-143110363D02*
X113442312Y-143157982D01*
X113442312Y-143157982D02*
X113489931Y-143253220D01*
X113489931Y-143253220D02*
X113489931Y-143396077D01*
X114433208Y-148253220D02*
X115099875Y-148253220D01*
X114528446Y-148253220D02*
X114480827Y-148205601D01*
X114480827Y-148205601D02*
X114433208Y-148110363D01*
X114433208Y-148110363D02*
X114433208Y-147967506D01*
X114433208Y-147967506D02*
X114480827Y-147872268D01*
X114480827Y-147872268D02*
X114576065Y-147824649D01*
X114576065Y-147824649D02*
X115099875Y-147824649D01*
X115099875Y-146919887D02*
X114576065Y-146919887D01*
X114576065Y-146919887D02*
X114480827Y-146967506D01*
X114480827Y-146967506D02*
X114433208Y-147062744D01*
X114433208Y-147062744D02*
X114433208Y-147253220D01*
X114433208Y-147253220D02*
X114480827Y-147348458D01*
X115052256Y-146919887D02*
X115099875Y-147015125D01*
X115099875Y-147015125D02*
X115099875Y-147253220D01*
X115099875Y-147253220D02*
X115052256Y-147348458D01*
X115052256Y-147348458D02*
X114957017Y-147396077D01*
X114957017Y-147396077D02*
X114861779Y-147396077D01*
X114861779Y-147396077D02*
X114766541Y-147348458D01*
X114766541Y-147348458D02*
X114718922Y-147253220D01*
X114718922Y-147253220D02*
X114718922Y-147015125D01*
X114718922Y-147015125D02*
X114671303Y-146919887D01*
X114433208Y-146443696D02*
X115099875Y-146443696D01*
X114528446Y-146443696D02*
X114480827Y-146396077D01*
X114480827Y-146396077D02*
X114433208Y-146300839D01*
X114433208Y-146300839D02*
X114433208Y-146157982D01*
X114433208Y-146157982D02*
X114480827Y-146062744D01*
X114480827Y-146062744D02*
X114576065Y-146015125D01*
X114576065Y-146015125D02*
X115099875Y-146015125D01*
X115099875Y-145396077D02*
X115052256Y-145491315D01*
X115052256Y-145491315D02*
X115004636Y-145538934D01*
X115004636Y-145538934D02*
X114909398Y-145586553D01*
X114909398Y-145586553D02*
X114623684Y-145586553D01*
X114623684Y-145586553D02*
X114528446Y-145538934D01*
X114528446Y-145538934D02*
X114480827Y-145491315D01*
X114480827Y-145491315D02*
X114433208Y-145396077D01*
X114433208Y-145396077D02*
X114433208Y-145253220D01*
X114433208Y-145253220D02*
X114480827Y-145157982D01*
X114480827Y-145157982D02*
X114528446Y-145110363D01*
X114528446Y-145110363D02*
X114623684Y-145062744D01*
X114623684Y-145062744D02*
X114909398Y-145062744D01*
X114909398Y-145062744D02*
X115004636Y-145110363D01*
X115004636Y-145110363D02*
X115052256Y-145157982D01*
X115052256Y-145157982D02*
X115099875Y-145253220D01*
X115099875Y-145253220D02*
X115099875Y-145396077D01*
X113038095Y-162014819D02*
X113038095Y-162824342D01*
X113038095Y-162824342D02*
X113085714Y-162919580D01*
X113085714Y-162919580D02*
X113133333Y-162967200D01*
X113133333Y-162967200D02*
X113228571Y-163014819D01*
X113228571Y-163014819D02*
X113419047Y-163014819D01*
X113419047Y-163014819D02*
X113514285Y-162967200D01*
X113514285Y-162967200D02*
X113561904Y-162919580D01*
X113561904Y-162919580D02*
X113609523Y-162824342D01*
X113609523Y-162824342D02*
X113609523Y-162014819D01*
X114038095Y-162967200D02*
X114180952Y-163014819D01*
X114180952Y-163014819D02*
X114419047Y-163014819D01*
X114419047Y-163014819D02*
X114514285Y-162967200D01*
X114514285Y-162967200D02*
X114561904Y-162919580D01*
X114561904Y-162919580D02*
X114609523Y-162824342D01*
X114609523Y-162824342D02*
X114609523Y-162729104D01*
X114609523Y-162729104D02*
X114561904Y-162633866D01*
X114561904Y-162633866D02*
X114514285Y-162586247D01*
X114514285Y-162586247D02*
X114419047Y-162538628D01*
X114419047Y-162538628D02*
X114228571Y-162491009D01*
X114228571Y-162491009D02*
X114133333Y-162443390D01*
X114133333Y-162443390D02*
X114085714Y-162395771D01*
X114085714Y-162395771D02*
X114038095Y-162300533D01*
X114038095Y-162300533D02*
X114038095Y-162205295D01*
X114038095Y-162205295D02*
X114085714Y-162110057D01*
X114085714Y-162110057D02*
X114133333Y-162062438D01*
X114133333Y-162062438D02*
X114228571Y-162014819D01*
X114228571Y-162014819D02*
X114466666Y-162014819D01*
X114466666Y-162014819D02*
X114609523Y-162062438D01*
X115371428Y-162491009D02*
X115514285Y-162538628D01*
X115514285Y-162538628D02*
X115561904Y-162586247D01*
X115561904Y-162586247D02*
X115609523Y-162681485D01*
X115609523Y-162681485D02*
X115609523Y-162824342D01*
X115609523Y-162824342D02*
X115561904Y-162919580D01*
X115561904Y-162919580D02*
X115514285Y-162967200D01*
X115514285Y-162967200D02*
X115419047Y-163014819D01*
X115419047Y-163014819D02*
X115038095Y-163014819D01*
X115038095Y-163014819D02*
X115038095Y-162014819D01*
X115038095Y-162014819D02*
X115371428Y-162014819D01*
X115371428Y-162014819D02*
X115466666Y-162062438D01*
X115466666Y-162062438D02*
X115514285Y-162110057D01*
X115514285Y-162110057D02*
X115561904Y-162205295D01*
X115561904Y-162205295D02*
X115561904Y-162300533D01*
X115561904Y-162300533D02*
X115514285Y-162395771D01*
X115514285Y-162395771D02*
X115466666Y-162443390D01*
X115466666Y-162443390D02*
X115371428Y-162491009D01*
X115371428Y-162491009D02*
X115038095Y-162491009D01*
D11*
X100778000Y-137668000D02*
X100778000Y-147888000D01*
X100778000Y-137668000D02*
X103438000Y-137668000D01*
X100778000Y-147888000D02*
X103438000Y-147888000D01*
X102108000Y-135068000D02*
X103438000Y-135068000D01*
X103438000Y-135068000D02*
X103438000Y-136398000D01*
X103438000Y-137668000D02*
X103438000Y-147888000D01*
X101302000Y-154924000D02*
X101302000Y-162984000D01*
X101302000Y-154924000D02*
X103422000Y-154924000D01*
X101302000Y-162984000D02*
X103422000Y-162984000D01*
X102362000Y-152864000D02*
X103422000Y-152864000D01*
X103422000Y-152864000D02*
X103422000Y-153924000D01*
X103422000Y-154924000D02*
X103422000Y-162984000D01*
D12*
X99760000Y-102490000D02*
X123760000Y-102490000D01*
X123760000Y-118490000D01*
X99760000Y-118490000D01*
X99760000Y-102490000D01*
D11*
X100778000Y-128270000D02*
X100778000Y-123130000D01*
X103438000Y-123130000D02*
X100778000Y-123130000D01*
X103438000Y-128270000D02*
X100778000Y-128270000D01*
X103438000Y-128270000D02*
X103438000Y-123130000D01*
X103438000Y-129540000D02*
X103438000Y-130870000D01*
X103438000Y-130870000D02*
X102108000Y-130870000D01*
X123320000Y-166500000D02*
X123320000Y-123060000D01*
X123320000Y-166500000D02*
X118240000Y-166500000D01*
X123320000Y-123060000D02*
X105280000Y-123060000D01*
X120650000Y-163830000D02*
X123320000Y-163830000D01*
X120650000Y-125730000D02*
X123320000Y-125730000D01*
X120650000Y-125730000D02*
X120650000Y-163830000D01*
X118240000Y-169040000D02*
X110360000Y-169040000D01*
X118240000Y-158620000D02*
X118240000Y-169040000D01*
X110360000Y-169040000D02*
X110360000Y-158620000D01*
X110360000Y-158620000D02*
X118240000Y-158620000D01*
X107950000Y-163830000D02*
X105280000Y-163830000D01*
X107950000Y-128270000D02*
X107950000Y-163830000D01*
X107950000Y-128270000D02*
X107950000Y-125730000D01*
X107950000Y-128270000D02*
X105280000Y-128270000D01*
X107950000Y-125730000D02*
X105280000Y-125730000D01*
X105280000Y-166500000D02*
X110360000Y-166500000D01*
X105280000Y-128270000D02*
X105280000Y-166500000D01*
X105280000Y-123060000D02*
X105280000Y-125730000D01*
%LPC*%
D13*
X102108000Y-136398000D03*
D14*
X102108000Y-138938000D03*
X102108000Y-141478000D03*
X102108000Y-144018000D03*
X102108000Y-146558000D03*
D15*
X102362000Y-153924000D03*
D16*
X102362000Y-155924000D03*
X102362000Y-157924000D03*
X102362000Y-159924000D03*
X102362000Y-161924000D03*
D17*
X101600000Y-111760000D03*
X101600000Y-109220000D03*
X101600000Y-116840000D03*
X101600000Y-114300000D03*
X121920000Y-109220000D03*
X101600000Y-104140000D03*
X101600000Y-106680000D03*
D13*
X121920000Y-106680000D03*
D17*
X121920000Y-111760000D03*
X121920000Y-114300000D03*
D14*
X102108000Y-124460000D03*
X102108000Y-127000000D03*
D13*
X102108000Y-129540000D03*
D18*
X121920000Y-127000000D03*
D19*
X106680000Y-127000000D03*
D18*
X106680000Y-129540000D03*
X121920000Y-132080000D03*
X106680000Y-132080000D03*
X121920000Y-157480000D03*
X121920000Y-129540000D03*
X106680000Y-134620000D03*
X121920000Y-162560000D03*
X106680000Y-162560000D03*
X106680000Y-160020000D03*
X106680000Y-157480000D03*
X106680000Y-154940000D03*
X106680000Y-152400000D03*
X106680000Y-149860000D03*
X106680000Y-147320000D03*
X106680000Y-144780000D03*
X106680000Y-142240000D03*
X106680000Y-139700000D03*
X106680000Y-137160000D03*
X121920000Y-137160000D03*
X121920000Y-139700000D03*
X121920000Y-142240000D03*
X121920000Y-144780000D03*
X121920000Y-147320000D03*
X121920000Y-149860000D03*
X121920000Y-152400000D03*
X121920000Y-154940000D03*
X121920000Y-134620000D03*
X121920000Y-160020000D03*
%LPD*%
M02*
