G04 #@! TF.GenerationSoftware,KiCad,Pcbnew,8.0.7*
G04 #@! TF.CreationDate,2025-05-25T12:57:57+02:00*
G04 #@! TF.ProjectId,Wave,57617665-2e6b-4696-9361-645f70636258,rev?*
G04 #@! TF.SameCoordinates,Original*
G04 #@! TF.FileFunction,Copper,L2,Bot*
G04 #@! TF.FilePolarity,Positive*
%FSLAX46Y46*%
G04 Gerber Fmt 4.6, Leading zero omitted, Abs format (unit mm)*
G04 Created by KiCad (PCBNEW 8.0.7) date 2025-05-25 12:57:57*
%MOMM*%
%LPD*%
G01*
G04 APERTURE LIST*
G04 #@! TA.AperFunction,ComponentPad*
%ADD10R,1.700000X1.700000*%
G04 #@! TD*
G04 #@! TA.AperFunction,ComponentPad*
%ADD11O,1.700000X1.700000*%
G04 #@! TD*
G04 #@! TA.AperFunction,ComponentPad*
%ADD12R,1.350000X1.350000*%
G04 #@! TD*
G04 #@! TA.AperFunction,ComponentPad*
%ADD13O,1.350000X1.350000*%
G04 #@! TD*
G04 #@! TA.AperFunction,ComponentPad*
%ADD14C,1.700000*%
G04 #@! TD*
G04 #@! TA.AperFunction,ComponentPad*
%ADD15O,1.600000X1.600000*%
G04 #@! TD*
G04 #@! TA.AperFunction,ComponentPad*
%ADD16R,1.600000X1.600000*%
G04 #@! TD*
G04 #@! TA.AperFunction,Conductor*
%ADD17C,0.500000*%
G04 #@! TD*
G04 APERTURE END LIST*
D10*
X102108000Y-136398000D03*
D11*
X102108000Y-138938000D03*
X102108000Y-141478000D03*
X102108000Y-144018000D03*
X102108000Y-146558000D03*
D12*
X102362000Y-153924000D03*
D13*
X102362000Y-155924000D03*
X102362000Y-157924000D03*
X102362000Y-159924000D03*
X102362000Y-161924000D03*
D14*
X101600000Y-111760000D03*
X101600000Y-109220000D03*
X101600000Y-116840000D03*
X101600000Y-114300000D03*
X121920000Y-109220000D03*
X101600000Y-104140000D03*
X101600000Y-106680000D03*
D10*
X121920000Y-106680000D03*
D14*
X121920000Y-111760000D03*
X121920000Y-114300000D03*
D11*
X102108000Y-124460000D03*
X102108000Y-127000000D03*
D10*
X102108000Y-129540000D03*
D15*
X121920000Y-127000000D03*
D16*
X106680000Y-127000000D03*
D15*
X106680000Y-129540000D03*
X121920000Y-132080000D03*
X106680000Y-132080000D03*
X121920000Y-157480000D03*
X121920000Y-129540000D03*
X106680000Y-134620000D03*
X121920000Y-162560000D03*
X106680000Y-162560000D03*
X106680000Y-160020000D03*
X106680000Y-157480000D03*
X106680000Y-154940000D03*
X106680000Y-152400000D03*
X106680000Y-149860000D03*
X106680000Y-147320000D03*
X106680000Y-144780000D03*
X106680000Y-142240000D03*
X106680000Y-139700000D03*
X106680000Y-137160000D03*
X121920000Y-137160000D03*
X121920000Y-139700000D03*
X121920000Y-142240000D03*
X121920000Y-144780000D03*
X121920000Y-147320000D03*
X121920000Y-149860000D03*
X121920000Y-152400000D03*
X121920000Y-154940000D03*
X121920000Y-134620000D03*
X121920000Y-160020000D03*
D17*
X119888000Y-153924000D02*
X119888000Y-145796000D01*
X119380000Y-154686000D02*
X119380000Y-154432000D01*
X105156000Y-167640000D02*
X114046000Y-167640000D01*
X100584000Y-160146000D02*
X100584000Y-163068000D01*
X119380000Y-154432000D02*
X119888000Y-153924000D01*
X114046000Y-160020000D02*
X119380000Y-154686000D01*
X100584000Y-163068000D02*
X105156000Y-167640000D01*
X114046000Y-167640000D02*
X114046000Y-160020000D01*
X120904000Y-145796000D02*
X121920000Y-144780000D01*
X119888000Y-145796000D02*
X120904000Y-145796000D01*
X102108000Y-148844000D02*
X100584000Y-150368000D01*
X102108000Y-146558000D02*
X102108000Y-148844000D01*
X100584000Y-150368000D02*
X100584000Y-160146000D01*
X100584000Y-160146000D02*
X102362000Y-161924000D01*
G04 #@! TA.AperFunction,Conductor*
G36*
X122506236Y-101619685D02*
G01*
X122551991Y-101672489D01*
X122562881Y-101715154D01*
X122574039Y-101871160D01*
X122574040Y-101871167D01*
X122631823Y-102136793D01*
X122631825Y-102136801D01*
X122680931Y-102268459D01*
X122726830Y-102391519D01*
X122857109Y-102630107D01*
X122857110Y-102630108D01*
X122857113Y-102630113D01*
X123020029Y-102847742D01*
X123020033Y-102847746D01*
X123020038Y-102847752D01*
X123212247Y-103039961D01*
X123212253Y-103039966D01*
X123212258Y-103039971D01*
X123429887Y-103202887D01*
X123429891Y-103202889D01*
X123429892Y-103202890D01*
X123668481Y-103333169D01*
X123668480Y-103333169D01*
X123668484Y-103333170D01*
X123668487Y-103333172D01*
X123923199Y-103428175D01*
X124188840Y-103485961D01*
X124344849Y-103497119D01*
X124410310Y-103521535D01*
X124452182Y-103577468D01*
X124460000Y-103620802D01*
X124460000Y-154816000D01*
X124440315Y-154883039D01*
X124387511Y-154928794D01*
X124336000Y-154940000D01*
X123339093Y-154940000D01*
X123272054Y-154920315D01*
X123226299Y-154867511D01*
X123215565Y-154826808D01*
X123208221Y-154742867D01*
X123205635Y-154713308D01*
X123160916Y-154546415D01*
X123146741Y-154493511D01*
X123146738Y-154493502D01*
X123129994Y-154457594D01*
X123050568Y-154287266D01*
X122920047Y-154100861D01*
X122920045Y-154100858D01*
X122759141Y-153939954D01*
X122572734Y-153809432D01*
X122572728Y-153809429D01*
X122514725Y-153782382D01*
X122462285Y-153736210D01*
X122443133Y-153669017D01*
X122463348Y-153602135D01*
X122514725Y-153557618D01*
X122528362Y-153551259D01*
X122572734Y-153530568D01*
X122759139Y-153400047D01*
X122920047Y-153239139D01*
X123050568Y-153052734D01*
X123146739Y-152846496D01*
X123205635Y-152626692D01*
X123225468Y-152400000D01*
X123205635Y-152173308D01*
X123146739Y-151953504D01*
X123050568Y-151747266D01*
X122920047Y-151560861D01*
X122920045Y-151560858D01*
X122759141Y-151399954D01*
X122572734Y-151269432D01*
X122572728Y-151269429D01*
X122514725Y-151242382D01*
X122462285Y-151196210D01*
X122443133Y-151129017D01*
X122463348Y-151062135D01*
X122514725Y-151017618D01*
X122572734Y-150990568D01*
X122759139Y-150860047D01*
X122920047Y-150699139D01*
X123050568Y-150512734D01*
X123146739Y-150306496D01*
X123205635Y-150086692D01*
X123225468Y-149860000D01*
X123205635Y-149633308D01*
X123146739Y-149413504D01*
X123050568Y-149207266D01*
X122920047Y-149020861D01*
X122920045Y-149020858D01*
X122759141Y-148859954D01*
X122572734Y-148729432D01*
X122572728Y-148729429D01*
X122514725Y-148702382D01*
X122462285Y-148656210D01*
X122443133Y-148589017D01*
X122463348Y-148522135D01*
X122514725Y-148477618D01*
X122572734Y-148450568D01*
X122759139Y-148320047D01*
X122920047Y-148159139D01*
X123050568Y-147972734D01*
X123146739Y-147766496D01*
X123205635Y-147546692D01*
X123225468Y-147320000D01*
X123205635Y-147093308D01*
X123146739Y-146873504D01*
X123050568Y-146667266D01*
X122920047Y-146480861D01*
X122920045Y-146480858D01*
X122759141Y-146319954D01*
X122572734Y-146189432D01*
X122572728Y-146189429D01*
X122514725Y-146162382D01*
X122462285Y-146116210D01*
X122443133Y-146049017D01*
X122463348Y-145982135D01*
X122514725Y-145937618D01*
X122572734Y-145910568D01*
X122759139Y-145780047D01*
X122920047Y-145619139D01*
X123050568Y-145432734D01*
X123146739Y-145226496D01*
X123205635Y-145006692D01*
X123225468Y-144780000D01*
X123205635Y-144553308D01*
X123146739Y-144333504D01*
X123050568Y-144127266D01*
X122920047Y-143940861D01*
X122920045Y-143940858D01*
X122759141Y-143779954D01*
X122572734Y-143649432D01*
X122572728Y-143649429D01*
X122514725Y-143622382D01*
X122462285Y-143576210D01*
X122443133Y-143509017D01*
X122463348Y-143442135D01*
X122514725Y-143397618D01*
X122572734Y-143370568D01*
X122759139Y-143240047D01*
X122920047Y-143079139D01*
X123050568Y-142892734D01*
X123146739Y-142686496D01*
X123205635Y-142466692D01*
X123225468Y-142240000D01*
X123205635Y-142013308D01*
X123146739Y-141793504D01*
X123050568Y-141587266D01*
X122920047Y-141400861D01*
X122920045Y-141400858D01*
X122759141Y-141239954D01*
X122572734Y-141109432D01*
X122572728Y-141109429D01*
X122514725Y-141082382D01*
X122462285Y-141036210D01*
X122443133Y-140969017D01*
X122463348Y-140902135D01*
X122514725Y-140857618D01*
X122572734Y-140830568D01*
X122759139Y-140700047D01*
X122920047Y-140539139D01*
X123050568Y-140352734D01*
X123146739Y-140146496D01*
X123205635Y-139926692D01*
X123225468Y-139700000D01*
X123205635Y-139473308D01*
X123146739Y-139253504D01*
X123050568Y-139047266D01*
X122920047Y-138860861D01*
X122920045Y-138860858D01*
X122759141Y-138699954D01*
X122572734Y-138569432D01*
X122572728Y-138569429D01*
X122514725Y-138542382D01*
X122462285Y-138496210D01*
X122443133Y-138429017D01*
X122463348Y-138362135D01*
X122514725Y-138317618D01*
X122572734Y-138290568D01*
X122759139Y-138160047D01*
X122920047Y-137999139D01*
X123050568Y-137812734D01*
X123146739Y-137606496D01*
X123205635Y-137386692D01*
X123225468Y-137160000D01*
X123205635Y-136933308D01*
X123146739Y-136713504D01*
X123050568Y-136507266D01*
X122920047Y-136320861D01*
X122920045Y-136320858D01*
X122759141Y-136159954D01*
X122572734Y-136029432D01*
X122572728Y-136029429D01*
X122514725Y-136002382D01*
X122462285Y-135956210D01*
X122443133Y-135889017D01*
X122463348Y-135822135D01*
X122514725Y-135777618D01*
X122515319Y-135777341D01*
X122572734Y-135750568D01*
X122759139Y-135620047D01*
X122920047Y-135459139D01*
X123050568Y-135272734D01*
X123146739Y-135066496D01*
X123205635Y-134846692D01*
X123225468Y-134620000D01*
X123205635Y-134393308D01*
X123146739Y-134173504D01*
X123050568Y-133967266D01*
X122920047Y-133780861D01*
X122920045Y-133780858D01*
X122759141Y-133619954D01*
X122572734Y-133489432D01*
X122572728Y-133489429D01*
X122514725Y-133462382D01*
X122462285Y-133416210D01*
X122443133Y-133349017D01*
X122463348Y-133282135D01*
X122514725Y-133237618D01*
X122572734Y-133210568D01*
X122759139Y-133080047D01*
X122920047Y-132919139D01*
X123050568Y-132732734D01*
X123146739Y-132526496D01*
X123205635Y-132306692D01*
X123225468Y-132080000D01*
X123205635Y-131853308D01*
X123146739Y-131633504D01*
X123050568Y-131427266D01*
X122920047Y-131240861D01*
X122920045Y-131240858D01*
X122759141Y-131079954D01*
X122572734Y-130949432D01*
X122572732Y-130949431D01*
X122514725Y-130922382D01*
X122514132Y-130922105D01*
X122461694Y-130875934D01*
X122442542Y-130808740D01*
X122462758Y-130741859D01*
X122514134Y-130697341D01*
X122572484Y-130670132D01*
X122758820Y-130539657D01*
X122919657Y-130378820D01*
X123050134Y-130192482D01*
X123146265Y-129986326D01*
X123146269Y-129986317D01*
X123198872Y-129790000D01*
X122353012Y-129790000D01*
X122385925Y-129732993D01*
X122420000Y-129605826D01*
X122420000Y-129474174D01*
X122385925Y-129347007D01*
X122353012Y-129290000D01*
X123198872Y-129290000D01*
X123198872Y-129289999D01*
X123146269Y-129093682D01*
X123146265Y-129093673D01*
X123050134Y-128887517D01*
X122919657Y-128701179D01*
X122758820Y-128540342D01*
X122572482Y-128409865D01*
X122514133Y-128382657D01*
X122461694Y-128336484D01*
X122442542Y-128269291D01*
X122462758Y-128202410D01*
X122514129Y-128157895D01*
X122572734Y-128130568D01*
X122759139Y-128000047D01*
X122920047Y-127839139D01*
X123050568Y-127652734D01*
X123146739Y-127446496D01*
X123205635Y-127226692D01*
X123225468Y-127000000D01*
X123205635Y-126773308D01*
X123146739Y-126553504D01*
X123050568Y-126347266D01*
X122920047Y-126160861D01*
X122920045Y-126160858D01*
X122759141Y-125999954D01*
X122572734Y-125869432D01*
X122572732Y-125869431D01*
X122366497Y-125773261D01*
X122366488Y-125773258D01*
X122146697Y-125714366D01*
X122146693Y-125714365D01*
X122146692Y-125714365D01*
X122146691Y-125714364D01*
X122146686Y-125714364D01*
X121920002Y-125694532D01*
X121919998Y-125694532D01*
X121693313Y-125714364D01*
X121693302Y-125714366D01*
X121473511Y-125773258D01*
X121473502Y-125773261D01*
X121267267Y-125869431D01*
X121267265Y-125869432D01*
X121080858Y-125999954D01*
X120919954Y-126160858D01*
X120789432Y-126347265D01*
X120789431Y-126347267D01*
X120693261Y-126553502D01*
X120693258Y-126553511D01*
X120634366Y-126773302D01*
X120634364Y-126773313D01*
X120614532Y-126999998D01*
X120614532Y-127000001D01*
X120634364Y-127226686D01*
X120634366Y-127226697D01*
X120693258Y-127446488D01*
X120693261Y-127446497D01*
X120789431Y-127652732D01*
X120789432Y-127652734D01*
X120919954Y-127839141D01*
X121080858Y-128000045D01*
X121080861Y-128000047D01*
X121267266Y-128130568D01*
X121325865Y-128157893D01*
X121378305Y-128204065D01*
X121397457Y-128271258D01*
X121377242Y-128338139D01*
X121325867Y-128382657D01*
X121267515Y-128409867D01*
X121081179Y-128540342D01*
X120920342Y-128701179D01*
X120789865Y-128887517D01*
X120693734Y-129093673D01*
X120693730Y-129093682D01*
X120641127Y-129289999D01*
X120641128Y-129290000D01*
X121486988Y-129290000D01*
X121454075Y-129347007D01*
X121420000Y-129474174D01*
X121420000Y-129605826D01*
X121454075Y-129732993D01*
X121486988Y-129790000D01*
X120641128Y-129790000D01*
X120693730Y-129986317D01*
X120693734Y-129986326D01*
X120789865Y-130192482D01*
X120920342Y-130378820D01*
X121081179Y-130539657D01*
X121267518Y-130670134D01*
X121267520Y-130670135D01*
X121325865Y-130697342D01*
X121378305Y-130743514D01*
X121397457Y-130810707D01*
X121377242Y-130877589D01*
X121325867Y-130922105D01*
X121267268Y-130949431D01*
X121267264Y-130949433D01*
X121080858Y-131079954D01*
X120919954Y-131240858D01*
X120789432Y-131427265D01*
X120789431Y-131427267D01*
X120693261Y-131633502D01*
X120693258Y-131633511D01*
X120634366Y-131853302D01*
X120634364Y-131853313D01*
X120614532Y-132079998D01*
X120614532Y-132080001D01*
X120634364Y-132306686D01*
X120634366Y-132306697D01*
X120693258Y-132526488D01*
X120693261Y-132526497D01*
X120789431Y-132732732D01*
X120789432Y-132732734D01*
X120919954Y-132919141D01*
X121080858Y-133080045D01*
X121080861Y-133080047D01*
X121267266Y-133210568D01*
X121325275Y-133237618D01*
X121377714Y-133283791D01*
X121396866Y-133350984D01*
X121376650Y-133417865D01*
X121325275Y-133462382D01*
X121267267Y-133489431D01*
X121267265Y-133489432D01*
X121080858Y-133619954D01*
X120919954Y-133780858D01*
X120789432Y-133967265D01*
X120789431Y-133967267D01*
X120693261Y-134173502D01*
X120693258Y-134173511D01*
X120634366Y-134393302D01*
X120634364Y-134393313D01*
X120614532Y-134619998D01*
X120614532Y-134620001D01*
X120634364Y-134846686D01*
X120634366Y-134846697D01*
X120693258Y-135066488D01*
X120693261Y-135066497D01*
X120789431Y-135272732D01*
X120789432Y-135272734D01*
X120919954Y-135459141D01*
X121080858Y-135620045D01*
X121080861Y-135620047D01*
X121267266Y-135750568D01*
X121324681Y-135777341D01*
X121325275Y-135777618D01*
X121377714Y-135823791D01*
X121396866Y-135890984D01*
X121376650Y-135957865D01*
X121325275Y-136002382D01*
X121267267Y-136029431D01*
X121267265Y-136029432D01*
X121080858Y-136159954D01*
X120919954Y-136320858D01*
X120789432Y-136507265D01*
X120789431Y-136507267D01*
X120693261Y-136713502D01*
X120693258Y-136713511D01*
X120634366Y-136933302D01*
X120634364Y-136933313D01*
X120614532Y-137159998D01*
X120614532Y-137160001D01*
X120634364Y-137386686D01*
X120634366Y-137386697D01*
X120693258Y-137606488D01*
X120693261Y-137606497D01*
X120789431Y-137812732D01*
X120789432Y-137812734D01*
X120919954Y-137999141D01*
X121080858Y-138160045D01*
X121080861Y-138160047D01*
X121267266Y-138290568D01*
X121325275Y-138317618D01*
X121377714Y-138363791D01*
X121396866Y-138430984D01*
X121376650Y-138497865D01*
X121325275Y-138542382D01*
X121267267Y-138569431D01*
X121267265Y-138569432D01*
X121080858Y-138699954D01*
X120919954Y-138860858D01*
X120789432Y-139047265D01*
X120789431Y-139047267D01*
X120693261Y-139253502D01*
X120693258Y-139253511D01*
X120634366Y-139473302D01*
X120634364Y-139473313D01*
X120614532Y-139699998D01*
X120614532Y-139700001D01*
X120634364Y-139926686D01*
X120634366Y-139926697D01*
X120693258Y-140146488D01*
X120693261Y-140146497D01*
X120789431Y-140352732D01*
X120789432Y-140352734D01*
X120919954Y-140539141D01*
X121080858Y-140700045D01*
X121080861Y-140700047D01*
X121267266Y-140830568D01*
X121325275Y-140857618D01*
X121377714Y-140903791D01*
X121396866Y-140970984D01*
X121376650Y-141037865D01*
X121325275Y-141082382D01*
X121267267Y-141109431D01*
X121267265Y-141109432D01*
X121080858Y-141239954D01*
X120919954Y-141400858D01*
X120789432Y-141587265D01*
X120789431Y-141587267D01*
X120693261Y-141793502D01*
X120693258Y-141793511D01*
X120634366Y-142013302D01*
X120634364Y-142013313D01*
X120614532Y-142239998D01*
X120614532Y-142240001D01*
X120634364Y-142466686D01*
X120634366Y-142466697D01*
X120693258Y-142686488D01*
X120693261Y-142686497D01*
X120789431Y-142892732D01*
X120789432Y-142892734D01*
X120919954Y-143079141D01*
X121080858Y-143240045D01*
X121080861Y-143240047D01*
X121267266Y-143370568D01*
X121325275Y-143397618D01*
X121377714Y-143443791D01*
X121396866Y-143510984D01*
X121376650Y-143577865D01*
X121325275Y-143622382D01*
X121267267Y-143649431D01*
X121267265Y-143649432D01*
X121080858Y-143779954D01*
X120919954Y-143940858D01*
X120789432Y-144127265D01*
X120789431Y-144127267D01*
X120693261Y-144333502D01*
X120693258Y-144333511D01*
X120634366Y-144553302D01*
X120634364Y-144553313D01*
X120614532Y-144779998D01*
X120614532Y-144780000D01*
X120624102Y-144889395D01*
X120625966Y-144910693D01*
X120612199Y-144979193D01*
X120563584Y-145029376D01*
X120502438Y-145045500D01*
X119814080Y-145045500D01*
X119669092Y-145074340D01*
X119669082Y-145074343D01*
X119532511Y-145130912D01*
X119532498Y-145130919D01*
X119409584Y-145213048D01*
X119409580Y-145213051D01*
X119305051Y-145317580D01*
X119305048Y-145317584D01*
X119222919Y-145440498D01*
X119222912Y-145440511D01*
X119166343Y-145577082D01*
X119166340Y-145577092D01*
X119137500Y-145722079D01*
X119137500Y-153561770D01*
X119117815Y-153628809D01*
X119101181Y-153649451D01*
X118797047Y-153953584D01*
X118797045Y-153953586D01*
X118767428Y-153997915D01*
X118767426Y-153997918D01*
X118714914Y-154076507D01*
X118658343Y-154213082D01*
X118658340Y-154213092D01*
X118632604Y-154342474D01*
X118600219Y-154404385D01*
X118598668Y-154405963D01*
X118100951Y-154903681D01*
X118039628Y-154937166D01*
X118013270Y-154940000D01*
X108099093Y-154940000D01*
X108032054Y-154920315D01*
X107986299Y-154867511D01*
X107975565Y-154826808D01*
X107968221Y-154742867D01*
X107965635Y-154713308D01*
X107920916Y-154546415D01*
X107906741Y-154493511D01*
X107906738Y-154493502D01*
X107889994Y-154457594D01*
X107810568Y-154287266D01*
X107680047Y-154100861D01*
X107680045Y-154100858D01*
X107519141Y-153939954D01*
X107332734Y-153809432D01*
X107332728Y-153809429D01*
X107274725Y-153782382D01*
X107222285Y-153736210D01*
X107203133Y-153669017D01*
X107223348Y-153602135D01*
X107274725Y-153557618D01*
X107288362Y-153551259D01*
X107332734Y-153530568D01*
X107519139Y-153400047D01*
X107680047Y-153239139D01*
X107810568Y-153052734D01*
X107906739Y-152846496D01*
X107965635Y-152626692D01*
X107985468Y-152400000D01*
X107965635Y-152173308D01*
X107906739Y-151953504D01*
X107810568Y-151747266D01*
X107680047Y-151560861D01*
X107680045Y-151560858D01*
X107519141Y-151399954D01*
X107332734Y-151269432D01*
X107332728Y-151269429D01*
X107274725Y-151242382D01*
X107222285Y-151196210D01*
X107203133Y-151129017D01*
X107223348Y-151062135D01*
X107274725Y-151017618D01*
X107332734Y-150990568D01*
X107519139Y-150860047D01*
X107680047Y-150699139D01*
X107810568Y-150512734D01*
X107906739Y-150306496D01*
X107965635Y-150086692D01*
X107985468Y-149860000D01*
X107965635Y-149633308D01*
X107906739Y-149413504D01*
X107810568Y-149207266D01*
X107680047Y-149020861D01*
X107680045Y-149020858D01*
X107519141Y-148859954D01*
X107332734Y-148729432D01*
X107332728Y-148729429D01*
X107274725Y-148702382D01*
X107222285Y-148656210D01*
X107203133Y-148589017D01*
X107223348Y-148522135D01*
X107274725Y-148477618D01*
X107332734Y-148450568D01*
X107519139Y-148320047D01*
X107680047Y-148159139D01*
X107810568Y-147972734D01*
X107906739Y-147766496D01*
X107965635Y-147546692D01*
X107985468Y-147320000D01*
X107965635Y-147093308D01*
X107906739Y-146873504D01*
X107810568Y-146667266D01*
X107680047Y-146480861D01*
X107680045Y-146480858D01*
X107519141Y-146319954D01*
X107332734Y-146189432D01*
X107332728Y-146189429D01*
X107274725Y-146162382D01*
X107222285Y-146116210D01*
X107203133Y-146049017D01*
X107223348Y-145982135D01*
X107274725Y-145937618D01*
X107332734Y-145910568D01*
X107519139Y-145780047D01*
X107680047Y-145619139D01*
X107810568Y-145432734D01*
X107906739Y-145226496D01*
X107965635Y-145006692D01*
X107985468Y-144780000D01*
X107965635Y-144553308D01*
X107906739Y-144333504D01*
X107810568Y-144127266D01*
X107680047Y-143940861D01*
X107680045Y-143940858D01*
X107519141Y-143779954D01*
X107332734Y-143649432D01*
X107332728Y-143649429D01*
X107274725Y-143622382D01*
X107222285Y-143576210D01*
X107203133Y-143509017D01*
X107223348Y-143442135D01*
X107274725Y-143397618D01*
X107332734Y-143370568D01*
X107519139Y-143240047D01*
X107680047Y-143079139D01*
X107810568Y-142892734D01*
X107906739Y-142686496D01*
X107965635Y-142466692D01*
X107985468Y-142240000D01*
X107965635Y-142013308D01*
X107906739Y-141793504D01*
X107810568Y-141587266D01*
X107680047Y-141400861D01*
X107680045Y-141400858D01*
X107519141Y-141239954D01*
X107332734Y-141109432D01*
X107332728Y-141109429D01*
X107274725Y-141082382D01*
X107222285Y-141036210D01*
X107203133Y-140969017D01*
X107223348Y-140902135D01*
X107274725Y-140857618D01*
X107332734Y-140830568D01*
X107519139Y-140700047D01*
X107680047Y-140539139D01*
X107810568Y-140352734D01*
X107906739Y-140146496D01*
X107965635Y-139926692D01*
X107985468Y-139700000D01*
X107965635Y-139473308D01*
X107906739Y-139253504D01*
X107810568Y-139047266D01*
X107680047Y-138860861D01*
X107680045Y-138860858D01*
X107519141Y-138699954D01*
X107332734Y-138569432D01*
X107332728Y-138569429D01*
X107274725Y-138542382D01*
X107222285Y-138496210D01*
X107203133Y-138429017D01*
X107223348Y-138362135D01*
X107274725Y-138317618D01*
X107332734Y-138290568D01*
X107519139Y-138160047D01*
X107680047Y-137999139D01*
X107810568Y-137812734D01*
X107906739Y-137606496D01*
X107965635Y-137386692D01*
X107985468Y-137160000D01*
X107965635Y-136933308D01*
X107906739Y-136713504D01*
X107810568Y-136507266D01*
X107680047Y-136320861D01*
X107680045Y-136320858D01*
X107519141Y-136159954D01*
X107332734Y-136029432D01*
X107332732Y-136029431D01*
X107274725Y-136002382D01*
X107274132Y-136002105D01*
X107221694Y-135955934D01*
X107202542Y-135888740D01*
X107222758Y-135821859D01*
X107274134Y-135777341D01*
X107332484Y-135750132D01*
X107518820Y-135619657D01*
X107679657Y-135458820D01*
X107810134Y-135272482D01*
X107906265Y-135066326D01*
X107906269Y-135066317D01*
X107958872Y-134870000D01*
X107113012Y-134870000D01*
X107145925Y-134812993D01*
X107180000Y-134685826D01*
X107180000Y-134554174D01*
X107145925Y-134427007D01*
X107113012Y-134370000D01*
X107958872Y-134370000D01*
X107958872Y-134369999D01*
X107906269Y-134173682D01*
X107906265Y-134173673D01*
X107810134Y-133967517D01*
X107679657Y-133781179D01*
X107518820Y-133620342D01*
X107332482Y-133489865D01*
X107274133Y-133462657D01*
X107221694Y-133416484D01*
X107202542Y-133349291D01*
X107222758Y-133282410D01*
X107274129Y-133237895D01*
X107332734Y-133210568D01*
X107519139Y-133080047D01*
X107680047Y-132919139D01*
X107810568Y-132732734D01*
X107906739Y-132526496D01*
X107965635Y-132306692D01*
X107985468Y-132080000D01*
X107965635Y-131853308D01*
X107906739Y-131633504D01*
X107810568Y-131427266D01*
X107680047Y-131240861D01*
X107680045Y-131240858D01*
X107519141Y-131079954D01*
X107332734Y-130949432D01*
X107332728Y-130949429D01*
X107274725Y-130922382D01*
X107222285Y-130876210D01*
X107203133Y-130809017D01*
X107223348Y-130742135D01*
X107274725Y-130697618D01*
X107275319Y-130697341D01*
X107332734Y-130670568D01*
X107519139Y-130540047D01*
X107680047Y-130379139D01*
X107810568Y-130192734D01*
X107906739Y-129986496D01*
X107965635Y-129766692D01*
X107985468Y-129540000D01*
X107965635Y-129313308D01*
X107906739Y-129093504D01*
X107810568Y-128887266D01*
X107680047Y-128700861D01*
X107680045Y-128700858D01*
X107519143Y-128539956D01*
X107494536Y-128522726D01*
X107450912Y-128468149D01*
X107443719Y-128398650D01*
X107475241Y-128336296D01*
X107535471Y-128300882D01*
X107552404Y-128297861D01*
X107587483Y-128294091D01*
X107722331Y-128243796D01*
X107837546Y-128157546D01*
X107923796Y-128042331D01*
X107974091Y-127907483D01*
X107980500Y-127847873D01*
X107980499Y-126152128D01*
X107974091Y-126092517D01*
X107939567Y-125999954D01*
X107923797Y-125957671D01*
X107923793Y-125957664D01*
X107837547Y-125842455D01*
X107837544Y-125842452D01*
X107722335Y-125756206D01*
X107722328Y-125756202D01*
X107587482Y-125705908D01*
X107587483Y-125705908D01*
X107527883Y-125699501D01*
X107527881Y-125699500D01*
X107527873Y-125699500D01*
X107527864Y-125699500D01*
X105832129Y-125699500D01*
X105832123Y-125699501D01*
X105772516Y-125705908D01*
X105637671Y-125756202D01*
X105637664Y-125756206D01*
X105522455Y-125842452D01*
X105522452Y-125842455D01*
X105436206Y-125957664D01*
X105436202Y-125957671D01*
X105385908Y-126092517D01*
X105379501Y-126152116D01*
X105379501Y-126152123D01*
X105379500Y-126152135D01*
X105379500Y-127847870D01*
X105379501Y-127847876D01*
X105385908Y-127907483D01*
X105436202Y-128042328D01*
X105436206Y-128042335D01*
X105522452Y-128157544D01*
X105522455Y-128157547D01*
X105637664Y-128243793D01*
X105637671Y-128243797D01*
X105645310Y-128246646D01*
X105772517Y-128294091D01*
X105807596Y-128297862D01*
X105872144Y-128324599D01*
X105911993Y-128381991D01*
X105914488Y-128451816D01*
X105878836Y-128511905D01*
X105865464Y-128522725D01*
X105840858Y-128539954D01*
X105679954Y-128700858D01*
X105549432Y-128887265D01*
X105549431Y-128887267D01*
X105453261Y-129093502D01*
X105453258Y-129093511D01*
X105394366Y-129313302D01*
X105394364Y-129313313D01*
X105374532Y-129539998D01*
X105374532Y-129540001D01*
X105394364Y-129766686D01*
X105394366Y-129766697D01*
X105453258Y-129986488D01*
X105453261Y-129986497D01*
X105549431Y-130192732D01*
X105549432Y-130192734D01*
X105679954Y-130379141D01*
X105840858Y-130540045D01*
X105840861Y-130540047D01*
X106027266Y-130670568D01*
X106084681Y-130697341D01*
X106085275Y-130697618D01*
X106137714Y-130743791D01*
X106156866Y-130810984D01*
X106136650Y-130877865D01*
X106085275Y-130922382D01*
X106027267Y-130949431D01*
X106027265Y-130949432D01*
X105840858Y-131079954D01*
X105679954Y-131240858D01*
X105549432Y-131427265D01*
X105549431Y-131427267D01*
X105453261Y-131633502D01*
X105453258Y-131633511D01*
X105394366Y-131853302D01*
X105394364Y-131853313D01*
X105374532Y-132079998D01*
X105374532Y-132080001D01*
X105394364Y-132306686D01*
X105394366Y-132306697D01*
X105453258Y-132526488D01*
X105453261Y-132526497D01*
X105549431Y-132732732D01*
X105549432Y-132732734D01*
X105679954Y-132919141D01*
X105840858Y-133080045D01*
X105840861Y-133080047D01*
X106027266Y-133210568D01*
X106085865Y-133237893D01*
X106138305Y-133284065D01*
X106157457Y-133351258D01*
X106137242Y-133418139D01*
X106085867Y-133462657D01*
X106027515Y-133489867D01*
X105841179Y-133620342D01*
X105680342Y-133781179D01*
X105549865Y-133967517D01*
X105453734Y-134173673D01*
X105453730Y-134173682D01*
X105401127Y-134369999D01*
X105401128Y-134370000D01*
X106246988Y-134370000D01*
X106214075Y-134427007D01*
X106180000Y-134554174D01*
X106180000Y-134685826D01*
X106214075Y-134812993D01*
X106246988Y-134870000D01*
X105401128Y-134870000D01*
X105453730Y-135066317D01*
X105453734Y-135066326D01*
X105549865Y-135272482D01*
X105680342Y-135458820D01*
X105841179Y-135619657D01*
X106027518Y-135750134D01*
X106027520Y-135750135D01*
X106085865Y-135777342D01*
X106138305Y-135823514D01*
X106157457Y-135890707D01*
X106137242Y-135957589D01*
X106085867Y-136002105D01*
X106027268Y-136029431D01*
X106027264Y-136029433D01*
X105840858Y-136159954D01*
X105679954Y-136320858D01*
X105549432Y-136507265D01*
X105549431Y-136507267D01*
X105453261Y-136713502D01*
X105453258Y-136713511D01*
X105394366Y-136933302D01*
X105394364Y-136933313D01*
X105374532Y-137159998D01*
X105374532Y-137160001D01*
X105394364Y-137386686D01*
X105394366Y-137386697D01*
X105453258Y-137606488D01*
X105453261Y-137606497D01*
X105549431Y-137812732D01*
X105549432Y-137812734D01*
X105679954Y-137999141D01*
X105840858Y-138160045D01*
X105840861Y-138160047D01*
X106027266Y-138290568D01*
X106085275Y-138317618D01*
X106137714Y-138363791D01*
X106156866Y-138430984D01*
X106136650Y-138497865D01*
X106085275Y-138542382D01*
X106027267Y-138569431D01*
X106027265Y-138569432D01*
X105840858Y-138699954D01*
X105679954Y-138860858D01*
X105549432Y-139047265D01*
X105549431Y-139047267D01*
X105453261Y-139253502D01*
X105453258Y-139253511D01*
X105394366Y-139473302D01*
X105394364Y-139473313D01*
X105374532Y-139699998D01*
X105374532Y-139700001D01*
X105394364Y-139926686D01*
X105394366Y-139926697D01*
X105453258Y-140146488D01*
X105453261Y-140146497D01*
X105549431Y-140352732D01*
X105549432Y-140352734D01*
X105679954Y-140539141D01*
X105840858Y-140700045D01*
X105840861Y-140700047D01*
X106027266Y-140830568D01*
X106085275Y-140857618D01*
X106137714Y-140903791D01*
X106156866Y-140970984D01*
X106136650Y-141037865D01*
X106085275Y-141082382D01*
X106027267Y-141109431D01*
X106027265Y-141109432D01*
X105840858Y-141239954D01*
X105679954Y-141400858D01*
X105549432Y-141587265D01*
X105549431Y-141587267D01*
X105453261Y-141793502D01*
X105453258Y-141793511D01*
X105394366Y-142013302D01*
X105394364Y-142013313D01*
X105374532Y-142239998D01*
X105374532Y-142240001D01*
X105394364Y-142466686D01*
X105394366Y-142466697D01*
X105453258Y-142686488D01*
X105453261Y-142686497D01*
X105549431Y-142892732D01*
X105549432Y-142892734D01*
X105679954Y-143079141D01*
X105840858Y-143240045D01*
X105840861Y-143240047D01*
X106027266Y-143370568D01*
X106085275Y-143397618D01*
X106137714Y-143443791D01*
X106156866Y-143510984D01*
X106136650Y-143577865D01*
X106085275Y-143622382D01*
X106027267Y-143649431D01*
X106027265Y-143649432D01*
X105840858Y-143779954D01*
X105679954Y-143940858D01*
X105549432Y-144127265D01*
X105549431Y-144127267D01*
X105453261Y-144333502D01*
X105453258Y-144333511D01*
X105394366Y-144553302D01*
X105394364Y-144553313D01*
X105374532Y-144779998D01*
X105374532Y-144780001D01*
X105394364Y-145006686D01*
X105394366Y-145006697D01*
X105453258Y-145226488D01*
X105453261Y-145226497D01*
X105549431Y-145432732D01*
X105549432Y-145432734D01*
X105679954Y-145619141D01*
X105840858Y-145780045D01*
X105840861Y-145780047D01*
X106027266Y-145910568D01*
X106085275Y-145937618D01*
X106137714Y-145983791D01*
X106156866Y-146050984D01*
X106136650Y-146117865D01*
X106085275Y-146162382D01*
X106027267Y-146189431D01*
X106027265Y-146189432D01*
X105840858Y-146319954D01*
X105679954Y-146480858D01*
X105549432Y-146667265D01*
X105549431Y-146667267D01*
X105453261Y-146873502D01*
X105453258Y-146873511D01*
X105394366Y-147093302D01*
X105394364Y-147093313D01*
X105374532Y-147319998D01*
X105374532Y-147320001D01*
X105394364Y-147546686D01*
X105394366Y-147546697D01*
X105453258Y-147766488D01*
X105453261Y-147766497D01*
X105549431Y-147972732D01*
X105549432Y-147972734D01*
X105679954Y-148159141D01*
X105840858Y-148320045D01*
X105840861Y-148320047D01*
X106027266Y-148450568D01*
X106085275Y-148477618D01*
X106137714Y-148523791D01*
X106156866Y-148590984D01*
X106136650Y-148657865D01*
X106085275Y-148702382D01*
X106027267Y-148729431D01*
X106027265Y-148729432D01*
X105840858Y-148859954D01*
X105679954Y-149020858D01*
X105549432Y-149207265D01*
X105549431Y-149207267D01*
X105453261Y-149413502D01*
X105453258Y-149413511D01*
X105394366Y-149633302D01*
X105394364Y-149633313D01*
X105374532Y-149859998D01*
X105374532Y-149860001D01*
X105394364Y-150086686D01*
X105394366Y-150086697D01*
X105453258Y-150306488D01*
X105453261Y-150306497D01*
X105549431Y-150512732D01*
X105549432Y-150512734D01*
X105679954Y-150699141D01*
X105840858Y-150860045D01*
X105840861Y-150860047D01*
X106027266Y-150990568D01*
X106085275Y-151017618D01*
X106137714Y-151063791D01*
X106156866Y-151130984D01*
X106136650Y-151197865D01*
X106085275Y-151242382D01*
X106027267Y-151269431D01*
X106027265Y-151269432D01*
X105840858Y-151399954D01*
X105679954Y-151560858D01*
X105549432Y-151747265D01*
X105549431Y-151747267D01*
X105453261Y-151953502D01*
X105453258Y-151953511D01*
X105394366Y-152173302D01*
X105394364Y-152173313D01*
X105374532Y-152399998D01*
X105374532Y-152400001D01*
X105394364Y-152626686D01*
X105394366Y-152626697D01*
X105453258Y-152846488D01*
X105453261Y-152846497D01*
X105549431Y-153052732D01*
X105549432Y-153052734D01*
X105679954Y-153239141D01*
X105840858Y-153400045D01*
X105840861Y-153400047D01*
X106027266Y-153530568D01*
X106071638Y-153551259D01*
X106085275Y-153557618D01*
X106137714Y-153603791D01*
X106156866Y-153670984D01*
X106136650Y-153737865D01*
X106085275Y-153782382D01*
X106027267Y-153809431D01*
X106027265Y-153809432D01*
X105840858Y-153939954D01*
X105679954Y-154100858D01*
X105549432Y-154287265D01*
X105549431Y-154287267D01*
X105453261Y-154493502D01*
X105453258Y-154493511D01*
X105394366Y-154713302D01*
X105394364Y-154713312D01*
X105384435Y-154826808D01*
X105358982Y-154891876D01*
X105302392Y-154932855D01*
X105260907Y-154940000D01*
X103622055Y-154940000D01*
X103555016Y-154920315D01*
X103509261Y-154867511D01*
X103499317Y-154798353D01*
X103505873Y-154772667D01*
X103530596Y-154706379D01*
X103530598Y-154706372D01*
X103536999Y-154646844D01*
X103537000Y-154646827D01*
X103537000Y-154174000D01*
X102677686Y-154174000D01*
X102682080Y-154169606D01*
X102734741Y-154078394D01*
X102762000Y-153976661D01*
X102762000Y-153871339D01*
X102734741Y-153769606D01*
X102682080Y-153678394D01*
X102677686Y-153674000D01*
X103537000Y-153674000D01*
X103537000Y-153201172D01*
X103536999Y-153201155D01*
X103530598Y-153141627D01*
X103530596Y-153141620D01*
X103480354Y-153006913D01*
X103480350Y-153006906D01*
X103394190Y-152891812D01*
X103394187Y-152891809D01*
X103279093Y-152805649D01*
X103279086Y-152805645D01*
X103144379Y-152755403D01*
X103144372Y-152755401D01*
X103084844Y-152749000D01*
X102612000Y-152749000D01*
X102612000Y-153608314D01*
X102607606Y-153603920D01*
X102516394Y-153551259D01*
X102414661Y-153524000D01*
X102309339Y-153524000D01*
X102207606Y-153551259D01*
X102116394Y-153603920D01*
X102112000Y-153608314D01*
X102112000Y-152749000D01*
X101639155Y-152749000D01*
X101579627Y-152755401D01*
X101579620Y-152755403D01*
X101501833Y-152784416D01*
X101432141Y-152789400D01*
X101370818Y-152755915D01*
X101337334Y-152694592D01*
X101334500Y-152668234D01*
X101334500Y-150730229D01*
X101354185Y-150663190D01*
X101370819Y-150642548D01*
X102690948Y-149322419D01*
X102690951Y-149322416D01*
X102773084Y-149199495D01*
X102829658Y-149062913D01*
X102829658Y-149062910D01*
X102829660Y-149062906D01*
X102838023Y-149020862D01*
X102838023Y-149020861D01*
X102858500Y-148917920D01*
X102858500Y-147745700D01*
X102878185Y-147678661D01*
X102911375Y-147644126D01*
X102979401Y-147596495D01*
X103146495Y-147429401D01*
X103282035Y-147235830D01*
X103381903Y-147021663D01*
X103443063Y-146793408D01*
X103463659Y-146558000D01*
X103443063Y-146322592D01*
X103381903Y-146094337D01*
X103282035Y-145880171D01*
X103211927Y-145780045D01*
X103146494Y-145686597D01*
X102979402Y-145519506D01*
X102979396Y-145519501D01*
X102793842Y-145389575D01*
X102750217Y-145334998D01*
X102743023Y-145265500D01*
X102774546Y-145203145D01*
X102793842Y-145186425D01*
X102816026Y-145170891D01*
X102979401Y-145056495D01*
X103146495Y-144889401D01*
X103282035Y-144695830D01*
X103381903Y-144481663D01*
X103443063Y-144253408D01*
X103463659Y-144018000D01*
X103443063Y-143782592D01*
X103381903Y-143554337D01*
X103282035Y-143340171D01*
X103211927Y-143240045D01*
X103146494Y-143146597D01*
X102979402Y-142979506D01*
X102979396Y-142979501D01*
X102793842Y-142849575D01*
X102750217Y-142794998D01*
X102743023Y-142725500D01*
X102774546Y-142663145D01*
X102793842Y-142646425D01*
X102816026Y-142630891D01*
X102979401Y-142516495D01*
X103146495Y-142349401D01*
X103282035Y-142155830D01*
X103381903Y-141941663D01*
X103443063Y-141713408D01*
X103463659Y-141478000D01*
X103443063Y-141242592D01*
X103381903Y-141014337D01*
X103282035Y-140800171D01*
X103211927Y-140700045D01*
X103146494Y-140606597D01*
X102979402Y-140439506D01*
X102979396Y-140439501D01*
X102793842Y-140309575D01*
X102750217Y-140254998D01*
X102743023Y-140185500D01*
X102774546Y-140123145D01*
X102793842Y-140106425D01*
X102816026Y-140090891D01*
X102979401Y-139976495D01*
X103146495Y-139809401D01*
X103282035Y-139615830D01*
X103381903Y-139401663D01*
X103443063Y-139173408D01*
X103463659Y-138938000D01*
X103443063Y-138702592D01*
X103381903Y-138474337D01*
X103282035Y-138260171D01*
X103211926Y-138160045D01*
X103146496Y-138066600D01*
X103146495Y-138066599D01*
X103024179Y-137944283D01*
X102990696Y-137882963D01*
X102995680Y-137813271D01*
X103037551Y-137757337D01*
X103068529Y-137740422D01*
X103200086Y-137691354D01*
X103200093Y-137691350D01*
X103315187Y-137605190D01*
X103315190Y-137605187D01*
X103401350Y-137490093D01*
X103401354Y-137490086D01*
X103451596Y-137355379D01*
X103451598Y-137355372D01*
X103457999Y-137295844D01*
X103458000Y-137295827D01*
X103458000Y-136648000D01*
X102541012Y-136648000D01*
X102573925Y-136590993D01*
X102608000Y-136463826D01*
X102608000Y-136332174D01*
X102573925Y-136205007D01*
X102541012Y-136148000D01*
X103458000Y-136148000D01*
X103458000Y-135500172D01*
X103457999Y-135500155D01*
X103451598Y-135440627D01*
X103451596Y-135440620D01*
X103401354Y-135305913D01*
X103401350Y-135305906D01*
X103315190Y-135190812D01*
X103315187Y-135190809D01*
X103200093Y-135104649D01*
X103200086Y-135104645D01*
X103065379Y-135054403D01*
X103065372Y-135054401D01*
X103005844Y-135048000D01*
X102358000Y-135048000D01*
X102358000Y-135964988D01*
X102300993Y-135932075D01*
X102173826Y-135898000D01*
X102042174Y-135898000D01*
X101915007Y-135932075D01*
X101858000Y-135964988D01*
X101858000Y-135048000D01*
X101210155Y-135048000D01*
X101150627Y-135054401D01*
X101150620Y-135054403D01*
X101015913Y-135104645D01*
X101015906Y-135104649D01*
X100900812Y-135190809D01*
X100900809Y-135190812D01*
X100814649Y-135305906D01*
X100814645Y-135305913D01*
X100764403Y-135440620D01*
X100764401Y-135440627D01*
X100758000Y-135500155D01*
X100758000Y-136148000D01*
X101674988Y-136148000D01*
X101642075Y-136205007D01*
X101608000Y-136332174D01*
X101608000Y-136463826D01*
X101642075Y-136590993D01*
X101674988Y-136648000D01*
X100758000Y-136648000D01*
X100758000Y-137295844D01*
X100764401Y-137355372D01*
X100764403Y-137355379D01*
X100814645Y-137490086D01*
X100814649Y-137490093D01*
X100900809Y-137605187D01*
X100900812Y-137605190D01*
X101015906Y-137691350D01*
X101015913Y-137691354D01*
X101147470Y-137740421D01*
X101203403Y-137782292D01*
X101227821Y-137847756D01*
X101212970Y-137916029D01*
X101191819Y-137944284D01*
X101069503Y-138066600D01*
X100933965Y-138260169D01*
X100933964Y-138260171D01*
X100834098Y-138474335D01*
X100834094Y-138474344D01*
X100772938Y-138702586D01*
X100772936Y-138702596D01*
X100752341Y-138937999D01*
X100752341Y-138938000D01*
X100772936Y-139173403D01*
X100772938Y-139173413D01*
X100834094Y-139401655D01*
X100834096Y-139401659D01*
X100834097Y-139401663D01*
X100867503Y-139473302D01*
X100933965Y-139615830D01*
X100933967Y-139615834D01*
X101069501Y-139809395D01*
X101069506Y-139809402D01*
X101236597Y-139976493D01*
X101236603Y-139976498D01*
X101422158Y-140106425D01*
X101465783Y-140161002D01*
X101472977Y-140230500D01*
X101441454Y-140292855D01*
X101422158Y-140309575D01*
X101236597Y-140439505D01*
X101069505Y-140606597D01*
X100933965Y-140800169D01*
X100933964Y-140800171D01*
X100834098Y-141014335D01*
X100834094Y-141014344D01*
X100772938Y-141242586D01*
X100772936Y-141242596D01*
X100752341Y-141477999D01*
X100752341Y-141478000D01*
X100772936Y-141713403D01*
X100772938Y-141713413D01*
X100834094Y-141941655D01*
X100834096Y-141941659D01*
X100834097Y-141941663D01*
X100867503Y-142013302D01*
X100933965Y-142155830D01*
X100933967Y-142155834D01*
X101069501Y-142349395D01*
X101069506Y-142349402D01*
X101236597Y-142516493D01*
X101236603Y-142516498D01*
X101422158Y-142646425D01*
X101465783Y-142701002D01*
X101472977Y-142770500D01*
X101441454Y-142832855D01*
X101422158Y-142849575D01*
X101236597Y-142979505D01*
X101069505Y-143146597D01*
X100933965Y-143340169D01*
X100933964Y-143340171D01*
X100834098Y-143554335D01*
X100834094Y-143554344D01*
X100772938Y-143782586D01*
X100772936Y-143782596D01*
X100752341Y-144017999D01*
X100752341Y-144018000D01*
X100772936Y-144253403D01*
X100772938Y-144253413D01*
X100834094Y-144481655D01*
X100834096Y-144481659D01*
X100834097Y-144481663D01*
X100867503Y-144553302D01*
X100933965Y-144695830D01*
X100933967Y-144695834D01*
X101069501Y-144889395D01*
X101069506Y-144889402D01*
X101236597Y-145056493D01*
X101236603Y-145056498D01*
X101422158Y-145186425D01*
X101465783Y-145241002D01*
X101472977Y-145310500D01*
X101441454Y-145372855D01*
X101422158Y-145389575D01*
X101236597Y-145519505D01*
X101069505Y-145686597D01*
X100933965Y-145880169D01*
X100933964Y-145880171D01*
X100834098Y-146094335D01*
X100834094Y-146094344D01*
X100772938Y-146322586D01*
X100772936Y-146322596D01*
X100752341Y-146557999D01*
X100752341Y-146558000D01*
X100772936Y-146793403D01*
X100772938Y-146793413D01*
X100834094Y-147021655D01*
X100834096Y-147021659D01*
X100834097Y-147021663D01*
X100867503Y-147093302D01*
X100933965Y-147235830D01*
X100933967Y-147235834D01*
X101069501Y-147429395D01*
X101069506Y-147429402D01*
X101236595Y-147596492D01*
X101236598Y-147596494D01*
X101236599Y-147596495D01*
X101304623Y-147644125D01*
X101348248Y-147698701D01*
X101357500Y-147745700D01*
X101357500Y-148481769D01*
X101337815Y-148548808D01*
X101321181Y-148569450D01*
X100001050Y-149889580D01*
X100001044Y-149889588D01*
X99951812Y-149963268D01*
X99951813Y-149963269D01*
X99918921Y-150012496D01*
X99918914Y-150012508D01*
X99862342Y-150149086D01*
X99862340Y-150149092D01*
X99833500Y-150294079D01*
X99833500Y-154816000D01*
X99813815Y-154883039D01*
X99761011Y-154928794D01*
X99709500Y-154940000D01*
X99184000Y-154940000D01*
X99116961Y-154920315D01*
X99071206Y-154867511D01*
X99060000Y-154816000D01*
X99060000Y-124459999D01*
X100752341Y-124459999D01*
X100752341Y-124460000D01*
X100772936Y-124695403D01*
X100772938Y-124695413D01*
X100834094Y-124923655D01*
X100834096Y-124923659D01*
X100834097Y-124923663D01*
X100933965Y-125137830D01*
X100933967Y-125137834D01*
X101069501Y-125331395D01*
X101069506Y-125331402D01*
X101236597Y-125498493D01*
X101236603Y-125498498D01*
X101422158Y-125628425D01*
X101465783Y-125683002D01*
X101472977Y-125752500D01*
X101441454Y-125814855D01*
X101422158Y-125831575D01*
X101236597Y-125961505D01*
X101069505Y-126128597D01*
X100933965Y-126322169D01*
X100933964Y-126322171D01*
X100834098Y-126536335D01*
X100834094Y-126536344D01*
X100772938Y-126764586D01*
X100772936Y-126764596D01*
X100752341Y-126999999D01*
X100752341Y-127000000D01*
X100772936Y-127235403D01*
X100772938Y-127235413D01*
X100834094Y-127463655D01*
X100834096Y-127463659D01*
X100834097Y-127463663D01*
X100922262Y-127652732D01*
X100933965Y-127677830D01*
X100933967Y-127677834D01*
X101042281Y-127832521D01*
X101069501Y-127871396D01*
X101069506Y-127871402D01*
X101191818Y-127993714D01*
X101225303Y-128055037D01*
X101220319Y-128124729D01*
X101178447Y-128180662D01*
X101147471Y-128197577D01*
X101015912Y-128246646D01*
X101015906Y-128246649D01*
X100900812Y-128332809D01*
X100900809Y-128332812D01*
X100814649Y-128447906D01*
X100814645Y-128447913D01*
X100764403Y-128582620D01*
X100764401Y-128582627D01*
X100758000Y-128642155D01*
X100758000Y-129290000D01*
X101674988Y-129290000D01*
X101642075Y-129347007D01*
X101608000Y-129474174D01*
X101608000Y-129605826D01*
X101642075Y-129732993D01*
X101674988Y-129790000D01*
X100758000Y-129790000D01*
X100758000Y-130437844D01*
X100764401Y-130497372D01*
X100764403Y-130497379D01*
X100814645Y-130632086D01*
X100814649Y-130632093D01*
X100900809Y-130747187D01*
X100900812Y-130747190D01*
X101015906Y-130833350D01*
X101015913Y-130833354D01*
X101150620Y-130883596D01*
X101150627Y-130883598D01*
X101210155Y-130889999D01*
X101210172Y-130890000D01*
X101858000Y-130890000D01*
X101858000Y-129973012D01*
X101915007Y-130005925D01*
X102042174Y-130040000D01*
X102173826Y-130040000D01*
X102300993Y-130005925D01*
X102358000Y-129973012D01*
X102358000Y-130890000D01*
X103005828Y-130890000D01*
X103005844Y-130889999D01*
X103065372Y-130883598D01*
X103065379Y-130883596D01*
X103200086Y-130833354D01*
X103200093Y-130833350D01*
X103315187Y-130747190D01*
X103315190Y-130747187D01*
X103401350Y-130632093D01*
X103401354Y-130632086D01*
X103451596Y-130497379D01*
X103451598Y-130497372D01*
X103457999Y-130437844D01*
X103458000Y-130437827D01*
X103458000Y-129790000D01*
X102541012Y-129790000D01*
X102573925Y-129732993D01*
X102608000Y-129605826D01*
X102608000Y-129474174D01*
X102573925Y-129347007D01*
X102541012Y-129290000D01*
X103458000Y-129290000D01*
X103458000Y-128642172D01*
X103457999Y-128642155D01*
X103451598Y-128582627D01*
X103451596Y-128582620D01*
X103401354Y-128447913D01*
X103401350Y-128447906D01*
X103315190Y-128332812D01*
X103315187Y-128332809D01*
X103200093Y-128246649D01*
X103200088Y-128246646D01*
X103068528Y-128197577D01*
X103012595Y-128155705D01*
X102988178Y-128090241D01*
X103003030Y-128021968D01*
X103024175Y-127993720D01*
X103146495Y-127871401D01*
X103282035Y-127677830D01*
X103381903Y-127463663D01*
X103443063Y-127235408D01*
X103463659Y-127000000D01*
X103443063Y-126764592D01*
X103381903Y-126536337D01*
X103282035Y-126322171D01*
X103162971Y-126152128D01*
X103146494Y-126128597D01*
X102979402Y-125961506D01*
X102979396Y-125961501D01*
X102793842Y-125831575D01*
X102750217Y-125776998D01*
X102743023Y-125707500D01*
X102774546Y-125645145D01*
X102793842Y-125628425D01*
X102816026Y-125612891D01*
X102979401Y-125498495D01*
X103146495Y-125331401D01*
X103282035Y-125137830D01*
X103381903Y-124923663D01*
X103443063Y-124695408D01*
X103463659Y-124460000D01*
X103443063Y-124224592D01*
X103381903Y-123996337D01*
X103282035Y-123782171D01*
X103146495Y-123588599D01*
X103146494Y-123588597D01*
X102979402Y-123421506D01*
X102979395Y-123421501D01*
X102785834Y-123285967D01*
X102785830Y-123285965D01*
X102785828Y-123285964D01*
X102571663Y-123186097D01*
X102571659Y-123186096D01*
X102571655Y-123186094D01*
X102343413Y-123124938D01*
X102343403Y-123124936D01*
X102108001Y-123104341D01*
X102107999Y-123104341D01*
X101872596Y-123124936D01*
X101872586Y-123124938D01*
X101644344Y-123186094D01*
X101644335Y-123186098D01*
X101430171Y-123285964D01*
X101430169Y-123285965D01*
X101236597Y-123421505D01*
X101069505Y-123588597D01*
X100933965Y-123782169D01*
X100933964Y-123782171D01*
X100834098Y-123996335D01*
X100834094Y-123996344D01*
X100772938Y-124224586D01*
X100772936Y-124224596D01*
X100752341Y-124459999D01*
X99060000Y-124459999D01*
X99060000Y-104139999D01*
X100244341Y-104139999D01*
X100244341Y-104140000D01*
X100264936Y-104375403D01*
X100264938Y-104375413D01*
X100326094Y-104603655D01*
X100326096Y-104603659D01*
X100326097Y-104603663D01*
X100425965Y-104817830D01*
X100425967Y-104817834D01*
X100561501Y-105011395D01*
X100561506Y-105011402D01*
X100728597Y-105178493D01*
X100728603Y-105178498D01*
X100914158Y-105308425D01*
X100957783Y-105363002D01*
X100964977Y-105432500D01*
X100933454Y-105494855D01*
X100914158Y-105511575D01*
X100728597Y-105641505D01*
X100561505Y-105808597D01*
X100425965Y-106002169D01*
X100425964Y-106002171D01*
X100326098Y-106216335D01*
X100326094Y-106216344D01*
X100264938Y-106444586D01*
X100264936Y-106444596D01*
X100244341Y-106679999D01*
X100244341Y-106680000D01*
X100264936Y-106915403D01*
X100264938Y-106915413D01*
X100326094Y-107143655D01*
X100326096Y-107143659D01*
X100326097Y-107143663D01*
X100425965Y-107357830D01*
X100425967Y-107357834D01*
X100561501Y-107551395D01*
X100561506Y-107551402D01*
X100728597Y-107718493D01*
X100728603Y-107718498D01*
X100914158Y-107848425D01*
X100957783Y-107903002D01*
X100964977Y-107972500D01*
X100933454Y-108034855D01*
X100914158Y-108051575D01*
X100728597Y-108181505D01*
X100561505Y-108348597D01*
X100425965Y-108542169D01*
X100425964Y-108542171D01*
X100326098Y-108756335D01*
X100326094Y-108756344D01*
X100264938Y-108984586D01*
X100264936Y-108984596D01*
X100244341Y-109219999D01*
X100244341Y-109220000D01*
X100264936Y-109455403D01*
X100264938Y-109455413D01*
X100326094Y-109683655D01*
X100326096Y-109683659D01*
X100326097Y-109683663D01*
X100425965Y-109897830D01*
X100425967Y-109897834D01*
X100561501Y-110091395D01*
X100561506Y-110091402D01*
X100728597Y-110258493D01*
X100728603Y-110258498D01*
X100914158Y-110388425D01*
X100957783Y-110443002D01*
X100964977Y-110512500D01*
X100933454Y-110574855D01*
X100914158Y-110591575D01*
X100728597Y-110721505D01*
X100561505Y-110888597D01*
X100425965Y-111082169D01*
X100425964Y-111082171D01*
X100326098Y-111296335D01*
X100326094Y-111296344D01*
X100264938Y-111524586D01*
X100264936Y-111524596D01*
X100244341Y-111759999D01*
X100244341Y-111760000D01*
X100264936Y-111995403D01*
X100264938Y-111995413D01*
X100326094Y-112223655D01*
X100326096Y-112223659D01*
X100326097Y-112223663D01*
X100425965Y-112437830D01*
X100425967Y-112437834D01*
X100561501Y-112631395D01*
X100561506Y-112631402D01*
X100728597Y-112798493D01*
X100728603Y-112798498D01*
X100914158Y-112928425D01*
X100957783Y-112983002D01*
X100964977Y-113052500D01*
X100933454Y-113114855D01*
X100914158Y-113131575D01*
X100728597Y-113261505D01*
X100561505Y-113428597D01*
X100425965Y-113622169D01*
X100425964Y-113622171D01*
X100326098Y-113836335D01*
X100326094Y-113836344D01*
X100264938Y-114064586D01*
X100264936Y-114064596D01*
X100244341Y-114299999D01*
X100244341Y-114300000D01*
X100264936Y-114535403D01*
X100264938Y-114535413D01*
X100326094Y-114763655D01*
X100326096Y-114763659D01*
X100326097Y-114763663D01*
X100425965Y-114977830D01*
X100425967Y-114977834D01*
X100561501Y-115171395D01*
X100561506Y-115171402D01*
X100728597Y-115338493D01*
X100728603Y-115338498D01*
X100914158Y-115468425D01*
X100957783Y-115523002D01*
X100964977Y-115592500D01*
X100933454Y-115654855D01*
X100914158Y-115671575D01*
X100728597Y-115801505D01*
X100561505Y-115968597D01*
X100425965Y-116162169D01*
X100425964Y-116162171D01*
X100326098Y-116376335D01*
X100326094Y-116376344D01*
X100264938Y-116604586D01*
X100264936Y-116604596D01*
X100244341Y-116839999D01*
X100244341Y-116840000D01*
X100264936Y-117075403D01*
X100264938Y-117075413D01*
X100326094Y-117303655D01*
X100326096Y-117303659D01*
X100326097Y-117303663D01*
X100425965Y-117517830D01*
X100425967Y-117517834D01*
X100534281Y-117672521D01*
X100561505Y-117711401D01*
X100728599Y-117878495D01*
X100825384Y-117946265D01*
X100922165Y-118014032D01*
X100922167Y-118014033D01*
X100922170Y-118014035D01*
X101136337Y-118113903D01*
X101364592Y-118175063D01*
X101552918Y-118191539D01*
X101599999Y-118195659D01*
X101600000Y-118195659D01*
X101600001Y-118195659D01*
X101639234Y-118192226D01*
X101835408Y-118175063D01*
X102063663Y-118113903D01*
X102277830Y-118014035D01*
X102471401Y-117878495D01*
X102638495Y-117711401D01*
X102774035Y-117517830D01*
X102873903Y-117303663D01*
X102935063Y-117075408D01*
X102955659Y-116840000D01*
X102935063Y-116604592D01*
X102873903Y-116376337D01*
X102774035Y-116162171D01*
X102638495Y-115968599D01*
X102638494Y-115968597D01*
X102471402Y-115801506D01*
X102471396Y-115801501D01*
X102285842Y-115671575D01*
X102242217Y-115616998D01*
X102235023Y-115547500D01*
X102266546Y-115485145D01*
X102285842Y-115468425D01*
X102308026Y-115452891D01*
X102471401Y-115338495D01*
X102638495Y-115171401D01*
X102774035Y-114977830D01*
X102873903Y-114763663D01*
X102935063Y-114535408D01*
X102955659Y-114300000D01*
X102935063Y-114064592D01*
X102873903Y-113836337D01*
X102774035Y-113622171D01*
X102638495Y-113428599D01*
X102638494Y-113428597D01*
X102471402Y-113261506D01*
X102471396Y-113261501D01*
X102285842Y-113131575D01*
X102242217Y-113076998D01*
X102235023Y-113007500D01*
X102266546Y-112945145D01*
X102285842Y-112928425D01*
X102308026Y-112912891D01*
X102471401Y-112798495D01*
X102638495Y-112631401D01*
X102774035Y-112437830D01*
X102873903Y-112223663D01*
X102935063Y-111995408D01*
X102955659Y-111760000D01*
X102935063Y-111524592D01*
X102873903Y-111296337D01*
X102774035Y-111082171D01*
X102638495Y-110888599D01*
X102638494Y-110888597D01*
X102471402Y-110721506D01*
X102471396Y-110721501D01*
X102285842Y-110591575D01*
X102242217Y-110536998D01*
X102235023Y-110467500D01*
X102266546Y-110405145D01*
X102285842Y-110388425D01*
X102308026Y-110372891D01*
X102471401Y-110258495D01*
X102638495Y-110091401D01*
X102774035Y-109897830D01*
X102873903Y-109683663D01*
X102935063Y-109455408D01*
X102955659Y-109220000D01*
X102955659Y-109219999D01*
X120564341Y-109219999D01*
X120564341Y-109220000D01*
X120584936Y-109455403D01*
X120584938Y-109455413D01*
X120646094Y-109683655D01*
X120646096Y-109683659D01*
X120646097Y-109683663D01*
X120745965Y-109897830D01*
X120745967Y-109897834D01*
X120881501Y-110091395D01*
X120881506Y-110091402D01*
X121048597Y-110258493D01*
X121048603Y-110258498D01*
X121234158Y-110388425D01*
X121277783Y-110443002D01*
X121284977Y-110512500D01*
X121253454Y-110574855D01*
X121234158Y-110591575D01*
X121048597Y-110721505D01*
X120881505Y-110888597D01*
X120745965Y-111082169D01*
X120745964Y-111082171D01*
X120646098Y-111296335D01*
X120646094Y-111296344D01*
X120584938Y-111524586D01*
X120584936Y-111524596D01*
X120564341Y-111759999D01*
X120564341Y-111760000D01*
X120584936Y-111995403D01*
X120584938Y-111995413D01*
X120646094Y-112223655D01*
X120646096Y-112223659D01*
X120646097Y-112223663D01*
X120745965Y-112437830D01*
X120745967Y-112437834D01*
X120881501Y-112631395D01*
X120881506Y-112631402D01*
X121048597Y-112798493D01*
X121048603Y-112798498D01*
X121234158Y-112928425D01*
X121277783Y-112983002D01*
X121284977Y-113052500D01*
X121253454Y-113114855D01*
X121234158Y-113131575D01*
X121048597Y-113261505D01*
X120881505Y-113428597D01*
X120745965Y-113622169D01*
X120745964Y-113622171D01*
X120646098Y-113836335D01*
X120646094Y-113836344D01*
X120584938Y-114064586D01*
X120584936Y-114064596D01*
X120564341Y-114299999D01*
X120564341Y-114300000D01*
X120584936Y-114535403D01*
X120584938Y-114535413D01*
X120646094Y-114763655D01*
X120646096Y-114763659D01*
X120646097Y-114763663D01*
X120745965Y-114977830D01*
X120745967Y-114977834D01*
X120854281Y-115132521D01*
X120881505Y-115171401D01*
X121048599Y-115338495D01*
X121145384Y-115406265D01*
X121242165Y-115474032D01*
X121242167Y-115474033D01*
X121242170Y-115474035D01*
X121456337Y-115573903D01*
X121684592Y-115635063D01*
X121872918Y-115651539D01*
X121919999Y-115655659D01*
X121920000Y-115655659D01*
X121920001Y-115655659D01*
X121959234Y-115652226D01*
X122155408Y-115635063D01*
X122383663Y-115573903D01*
X122597830Y-115474035D01*
X122791401Y-115338495D01*
X122958495Y-115171401D01*
X123094035Y-114977830D01*
X123193903Y-114763663D01*
X123255063Y-114535408D01*
X123275659Y-114300000D01*
X123255063Y-114064592D01*
X123193903Y-113836337D01*
X123094035Y-113622171D01*
X122958495Y-113428599D01*
X122958494Y-113428597D01*
X122791402Y-113261506D01*
X122791396Y-113261501D01*
X122605842Y-113131575D01*
X122562217Y-113076998D01*
X122555023Y-113007500D01*
X122586546Y-112945145D01*
X122605842Y-112928425D01*
X122628026Y-112912891D01*
X122791401Y-112798495D01*
X122958495Y-112631401D01*
X123094035Y-112437830D01*
X123193903Y-112223663D01*
X123255063Y-111995408D01*
X123275659Y-111760000D01*
X123255063Y-111524592D01*
X123193903Y-111296337D01*
X123094035Y-111082171D01*
X122958495Y-110888599D01*
X122958494Y-110888597D01*
X122791402Y-110721506D01*
X122791396Y-110721501D01*
X122605842Y-110591575D01*
X122562217Y-110536998D01*
X122555023Y-110467500D01*
X122586546Y-110405145D01*
X122605842Y-110388425D01*
X122628026Y-110372891D01*
X122791401Y-110258495D01*
X122958495Y-110091401D01*
X123094035Y-109897830D01*
X123193903Y-109683663D01*
X123255063Y-109455408D01*
X123275659Y-109220000D01*
X123255063Y-108984592D01*
X123193903Y-108756337D01*
X123094035Y-108542171D01*
X122958495Y-108348599D01*
X122836179Y-108226283D01*
X122802696Y-108164963D01*
X122807680Y-108095271D01*
X122849551Y-108039337D01*
X122880529Y-108022422D01*
X123012086Y-107973354D01*
X123012093Y-107973350D01*
X123127187Y-107887190D01*
X123127190Y-107887187D01*
X123213350Y-107772093D01*
X123213354Y-107772086D01*
X123263596Y-107637379D01*
X123263598Y-107637372D01*
X123269999Y-107577844D01*
X123270000Y-107577827D01*
X123270000Y-106930000D01*
X122353012Y-106930000D01*
X122385925Y-106872993D01*
X122420000Y-106745826D01*
X122420000Y-106614174D01*
X122385925Y-106487007D01*
X122353012Y-106430000D01*
X123270000Y-106430000D01*
X123270000Y-105782172D01*
X123269999Y-105782155D01*
X123263598Y-105722627D01*
X123263596Y-105722620D01*
X123213354Y-105587913D01*
X123213350Y-105587906D01*
X123127190Y-105472812D01*
X123127187Y-105472809D01*
X123012093Y-105386649D01*
X123012086Y-105386645D01*
X122877379Y-105336403D01*
X122877372Y-105336401D01*
X122817844Y-105330000D01*
X122170000Y-105330000D01*
X122170000Y-106246988D01*
X122112993Y-106214075D01*
X121985826Y-106180000D01*
X121854174Y-106180000D01*
X121727007Y-106214075D01*
X121670000Y-106246988D01*
X121670000Y-105330000D01*
X121022155Y-105330000D01*
X120962627Y-105336401D01*
X120962620Y-105336403D01*
X120827913Y-105386645D01*
X120827906Y-105386649D01*
X120712812Y-105472809D01*
X120712809Y-105472812D01*
X120626649Y-105587906D01*
X120626645Y-105587913D01*
X120576403Y-105722620D01*
X120576401Y-105722627D01*
X120570000Y-105782155D01*
X120570000Y-106430000D01*
X121486988Y-106430000D01*
X121454075Y-106487007D01*
X121420000Y-106614174D01*
X121420000Y-106745826D01*
X121454075Y-106872993D01*
X121486988Y-106930000D01*
X120570000Y-106930000D01*
X120570000Y-107577844D01*
X120576401Y-107637372D01*
X120576403Y-107637379D01*
X120626645Y-107772086D01*
X120626649Y-107772093D01*
X120712809Y-107887187D01*
X120712812Y-107887190D01*
X120827906Y-107973350D01*
X120827913Y-107973354D01*
X120959470Y-108022421D01*
X121015403Y-108064292D01*
X121039821Y-108129756D01*
X121024970Y-108198029D01*
X121003819Y-108226284D01*
X120881503Y-108348600D01*
X120745965Y-108542169D01*
X120745964Y-108542171D01*
X120646098Y-108756335D01*
X120646094Y-108756344D01*
X120584938Y-108984586D01*
X120584936Y-108984596D01*
X120564341Y-109219999D01*
X102955659Y-109219999D01*
X102935063Y-108984592D01*
X102873903Y-108756337D01*
X102774035Y-108542171D01*
X102638495Y-108348599D01*
X102638494Y-108348597D01*
X102471402Y-108181506D01*
X102471396Y-108181501D01*
X102285842Y-108051575D01*
X102242217Y-107996998D01*
X102235023Y-107927500D01*
X102266546Y-107865145D01*
X102285842Y-107848425D01*
X102394865Y-107772086D01*
X102471401Y-107718495D01*
X102638495Y-107551401D01*
X102774035Y-107357830D01*
X102873903Y-107143663D01*
X102935063Y-106915408D01*
X102955659Y-106680000D01*
X102935063Y-106444592D01*
X102873903Y-106216337D01*
X102774035Y-106002171D01*
X102638495Y-105808599D01*
X102638494Y-105808597D01*
X102471402Y-105641506D01*
X102471396Y-105641501D01*
X102285842Y-105511575D01*
X102242217Y-105456998D01*
X102235023Y-105387500D01*
X102266546Y-105325145D01*
X102285842Y-105308425D01*
X102308026Y-105292891D01*
X102471401Y-105178495D01*
X102638495Y-105011401D01*
X102774035Y-104817830D01*
X102873903Y-104603663D01*
X102935063Y-104375408D01*
X102955659Y-104140000D01*
X102935063Y-103904592D01*
X102873903Y-103676337D01*
X102774035Y-103462171D01*
X102683710Y-103333172D01*
X102638494Y-103268597D01*
X102471402Y-103101506D01*
X102471395Y-103101501D01*
X102277834Y-102965967D01*
X102277830Y-102965965D01*
X102277828Y-102965964D01*
X102063663Y-102866097D01*
X102063659Y-102866096D01*
X102063655Y-102866094D01*
X101835413Y-102804938D01*
X101835403Y-102804936D01*
X101600001Y-102784341D01*
X101599999Y-102784341D01*
X101364596Y-102804936D01*
X101364586Y-102804938D01*
X101136344Y-102866094D01*
X101136335Y-102866098D01*
X100922171Y-102965964D01*
X100922169Y-102965965D01*
X100728597Y-103101505D01*
X100561505Y-103268597D01*
X100425965Y-103462169D01*
X100425964Y-103462171D01*
X100326098Y-103676335D01*
X100326094Y-103676344D01*
X100264938Y-103904586D01*
X100264936Y-103904596D01*
X100244341Y-104139999D01*
X99060000Y-104139999D01*
X99060000Y-103620802D01*
X99079685Y-103553763D01*
X99132489Y-103508008D01*
X99175149Y-103497119D01*
X99331160Y-103485961D01*
X99596801Y-103428175D01*
X99851513Y-103333172D01*
X99851517Y-103333169D01*
X99851519Y-103333169D01*
X99970813Y-103268029D01*
X100090113Y-103202887D01*
X100307742Y-103039971D01*
X100499971Y-102847742D01*
X100662887Y-102630113D01*
X100793172Y-102391513D01*
X100888175Y-102136801D01*
X100945961Y-101871160D01*
X100957119Y-101715154D01*
X100981536Y-101649689D01*
X101037470Y-101607818D01*
X101080803Y-101600000D01*
X122439197Y-101600000D01*
X122506236Y-101619685D01*
G37*
G04 #@! TD.AperFunction*
M02*
