G04 #@! TF.GenerationSoftware,KiCad,Pcbnew,8.0.7*
G04 #@! TF.CreationDate,2025-05-25T12:57:57+02:00*
G04 #@! TF.ProjectId,Wave,57617665-2e6b-4696-9361-645f70636258,rev?*
G04 #@! TF.SameCoordinates,Original*
G04 #@! TF.FileFunction,Copper,L1,Top*
G04 #@! TF.FilePolarity,Positive*
%FSLAX46Y46*%
G04 Gerber Fmt 4.6, Leading zero omitted, Abs format (unit mm)*
G04 Created by KiCad (PCBNEW 8.0.7) date 2025-05-25 12:57:57*
%MOMM*%
%LPD*%
G01*
G04 APERTURE LIST*
G04 #@! TA.AperFunction,ComponentPad*
%ADD10R,1.700000X1.700000*%
G04 #@! TD*
G04 #@! TA.AperFunction,ComponentPad*
%ADD11O,1.700000X1.700000*%
G04 #@! TD*
G04 #@! TA.AperFunction,ComponentPad*
%ADD12R,1.350000X1.350000*%
G04 #@! TD*
G04 #@! TA.AperFunction,ComponentPad*
%ADD13O,1.350000X1.350000*%
G04 #@! TD*
G04 #@! TA.AperFunction,ComponentPad*
%ADD14C,1.700000*%
G04 #@! TD*
G04 #@! TA.AperFunction,ComponentPad*
%ADD15O,1.600000X1.600000*%
G04 #@! TD*
G04 #@! TA.AperFunction,ComponentPad*
%ADD16R,1.600000X1.600000*%
G04 #@! TD*
G04 #@! TA.AperFunction,Conductor*
%ADD17C,0.500000*%
G04 #@! TD*
G04 #@! TA.AperFunction,Conductor*
%ADD18C,0.200000*%
G04 #@! TD*
G04 #@! TA.AperFunction,Conductor*
%ADD19C,1.000000*%
G04 #@! TD*
G04 APERTURE END LIST*
D10*
X102108000Y-136398000D03*
D11*
X102108000Y-138938000D03*
X102108000Y-141478000D03*
X102108000Y-144018000D03*
X102108000Y-146558000D03*
D12*
X102362000Y-153924000D03*
D13*
X102362000Y-155924000D03*
X102362000Y-157924000D03*
X102362000Y-159924000D03*
X102362000Y-161924000D03*
D14*
X101600000Y-111760000D03*
X101600000Y-109220000D03*
X101600000Y-116840000D03*
X101600000Y-114300000D03*
X121920000Y-109220000D03*
X101600000Y-104140000D03*
X101600000Y-106680000D03*
D10*
X121920000Y-106680000D03*
D14*
X121920000Y-111760000D03*
X121920000Y-114300000D03*
D11*
X102108000Y-124460000D03*
X102108000Y-127000000D03*
D10*
X102108000Y-129540000D03*
D15*
X121920000Y-127000000D03*
D16*
X106680000Y-127000000D03*
D15*
X106680000Y-129540000D03*
X121920000Y-132080000D03*
X106680000Y-132080000D03*
X121920000Y-157480000D03*
X121920000Y-129540000D03*
X106680000Y-134620000D03*
X121920000Y-162560000D03*
X106680000Y-162560000D03*
X106680000Y-160020000D03*
X106680000Y-157480000D03*
X106680000Y-154940000D03*
X106680000Y-152400000D03*
X106680000Y-149860000D03*
X106680000Y-147320000D03*
X106680000Y-144780000D03*
X106680000Y-142240000D03*
X106680000Y-139700000D03*
X106680000Y-137160000D03*
X121920000Y-137160000D03*
X121920000Y-139700000D03*
X121920000Y-142240000D03*
X121920000Y-144780000D03*
X121920000Y-147320000D03*
X121920000Y-149860000D03*
X121920000Y-152400000D03*
X121920000Y-154940000D03*
X121920000Y-134620000D03*
X121920000Y-160020000D03*
D17*
X104140000Y-129032000D02*
X104140000Y-142240000D01*
X102108000Y-127000000D02*
X104140000Y-129032000D01*
X104140000Y-142240000D02*
X106680000Y-142240000D01*
X104902000Y-146812000D02*
X104902000Y-159766000D01*
X104902000Y-159766000D02*
X104902000Y-164084000D01*
D18*
X104744000Y-159924000D02*
X104902000Y-159766000D01*
D17*
X102362000Y-159924000D02*
X104744000Y-159924000D01*
X102108000Y-144018000D02*
X104902000Y-146812000D01*
X104902000Y-164084000D02*
X109982000Y-164084000D01*
X120142000Y-142240000D02*
X121920000Y-142240000D01*
X109982000Y-164084000D02*
X109982000Y-152400000D01*
X109982000Y-152400000D02*
X120142000Y-142240000D01*
D19*
X99060000Y-166370000D02*
X102870000Y-170180000D01*
X99060000Y-154940000D02*
X99060000Y-166370000D01*
X99060000Y-138430000D02*
X99060000Y-154940000D01*
X99060000Y-154940000D02*
X100044000Y-155924000D01*
X100044000Y-155924000D02*
X102362000Y-155924000D01*
X99060000Y-138430000D02*
X99568000Y-138938000D01*
X99060000Y-124460000D02*
X99060000Y-138430000D01*
X99568000Y-138938000D02*
X102108000Y-138938000D01*
X99060000Y-124460000D02*
X102108000Y-124460000D01*
D18*
X99314000Y-124714000D02*
X99060000Y-124460000D01*
D19*
X124460000Y-166370000D02*
X124460000Y-127000000D01*
X124460000Y-127000000D02*
X121920000Y-127000000D01*
X102870000Y-170180000D02*
X120650000Y-170180000D01*
X120650000Y-170180000D02*
X124460000Y-166370000D01*
D17*
X114300000Y-116840000D02*
X114300000Y-134620000D01*
X121920000Y-109220000D02*
X114300000Y-116840000D01*
X114300000Y-134620000D02*
X111760000Y-137160000D01*
X111760000Y-137160000D02*
X106680000Y-137160000D01*
X116840000Y-134620000D02*
X116840000Y-116840000D01*
X106680000Y-139700000D02*
X111760000Y-139700000D01*
X111760000Y-139700000D02*
X116840000Y-134620000D01*
X116840000Y-116840000D02*
X121920000Y-111760000D01*
X119380000Y-132080000D02*
X119380000Y-116840000D01*
X121920000Y-134620000D02*
X119380000Y-132080000D01*
X119380000Y-116840000D02*
X121920000Y-114300000D01*
M02*
