M48
; DRILL file {KiCad 8.0.7} date 2025-05-25T12:58:00+0200
; FORMAT={-:-/ absolute / metric / decimal}
; #@! TF.CreationDate,2025-05-25T12:58:00+02:00
; #@! TF.GenerationSoftware,Kicad,Pcbnew,8.0.7
; #@! TF.FileFunction,Plated,1,2,PTH
FMAT,2
METRIC
; #@! TA.AperFunction,Plated,PTH,ComponentDrill
T1C0.800
; #@! TA.AperFunction,Plated,PTH,ComponentDrill
T2C1.000
%
G90
G05
T1
X102.362Y-153.924
X102.362Y-155.924
X102.362Y-157.924
X102.362Y-159.924
X102.362Y-161.924
T2
X101.6Y-104.14
X101.6Y-106.68
X101.6Y-109.22
X101.6Y-111.76
X101.6Y-114.3
X101.6Y-116.84
X102.108Y-124.46
X102.108Y-127.0
X102.108Y-129.54
X102.108Y-136.398
X102.108Y-138.938
X102.108Y-141.478
X102.108Y-144.018
X102.108Y-146.558
X106.68Y-127.0
X106.68Y-129.54
X106.68Y-132.08
X106.68Y-134.62
X106.68Y-137.16
X106.68Y-139.7
X106.68Y-142.24
X106.68Y-144.78
X106.68Y-147.32
X106.68Y-149.86
X106.68Y-152.4
X106.68Y-154.94
X106.68Y-157.48
X106.68Y-160.02
X106.68Y-162.56
X121.92Y-106.68
X121.92Y-109.22
X121.92Y-111.76
X121.92Y-114.3
X121.92Y-127.0
X121.92Y-129.54
X121.92Y-132.08
X121.92Y-134.62
X121.92Y-137.16
X121.92Y-139.7
X121.92Y-142.24
X121.92Y-144.78
X121.92Y-147.32
X121.92Y-149.86
X121.92Y-152.4
X121.92Y-154.94
X121.92Y-157.48
X121.92Y-160.02
X121.92Y-162.56
M30
