G04 #@! TF.GenerationSoftware,KiCad,Pcbnew,8.0.7*
G04 #@! TF.CreationDate,2025-05-25T12:57:58+02:00*
G04 #@! TF.ProjectId,Wave,57617665-2e6b-4696-9361-645f70636258,rev?*
G04 #@! TF.SameCoordinates,Original*
G04 #@! TF.FileFunction,Legend,Bot*
G04 #@! TF.FilePolarity,Positive*
%FSLAX46Y46*%
G04 Gerber Fmt 4.6, Leading zero omitted, Abs format (unit mm)*
G04 Created by KiCad (PCBNEW 8.0.7) date 2025-05-25 12:57:58*
%MOMM*%
%LPD*%
G01*
G04 APERTURE LIST*
%ADD10R,1.700000X1.700000*%
%ADD11O,1.700000X1.700000*%
%ADD12R,1.350000X1.350000*%
%ADD13O,1.350000X1.350000*%
%ADD14C,1.700000*%
%ADD15O,1.600000X1.600000*%
%ADD16R,1.600000X1.600000*%
G04 APERTURE END LIST*
%LPC*%
D10*
X102108000Y-136398000D03*
D11*
X102108000Y-138938000D03*
X102108000Y-141478000D03*
X102108000Y-144018000D03*
X102108000Y-146558000D03*
D12*
X102362000Y-153924000D03*
D13*
X102362000Y-155924000D03*
X102362000Y-157924000D03*
X102362000Y-159924000D03*
X102362000Y-161924000D03*
D14*
X101600000Y-111760000D03*
X101600000Y-109220000D03*
X101600000Y-116840000D03*
X101600000Y-114300000D03*
X121920000Y-109220000D03*
X101600000Y-104140000D03*
X101600000Y-106680000D03*
D10*
X121920000Y-106680000D03*
D14*
X121920000Y-111760000D03*
X121920000Y-114300000D03*
D11*
X102108000Y-124460000D03*
X102108000Y-127000000D03*
D10*
X102108000Y-129540000D03*
D15*
X121920000Y-127000000D03*
D16*
X106680000Y-127000000D03*
D15*
X106680000Y-129540000D03*
X121920000Y-132080000D03*
X106680000Y-132080000D03*
X121920000Y-157480000D03*
X121920000Y-129540000D03*
X106680000Y-134620000D03*
X121920000Y-162560000D03*
X106680000Y-162560000D03*
X106680000Y-160020000D03*
X106680000Y-157480000D03*
X106680000Y-154940000D03*
X106680000Y-152400000D03*
X106680000Y-149860000D03*
X106680000Y-147320000D03*
X106680000Y-144780000D03*
X106680000Y-142240000D03*
X106680000Y-139700000D03*
X106680000Y-137160000D03*
X121920000Y-137160000D03*
X121920000Y-139700000D03*
X121920000Y-142240000D03*
X121920000Y-144780000D03*
X121920000Y-147320000D03*
X121920000Y-149860000D03*
X121920000Y-152400000D03*
X121920000Y-154940000D03*
X121920000Y-134620000D03*
X121920000Y-160020000D03*
%LPD*%
M02*
