%TF.GenerationSoftware,KiCad,Pcbnew,8.0.7*%
%TF.CreationDate,2025-05-25T12:58:01+02:00*%
%TF.ProjectId,Wave,57617665-2e6b-4696-9361-645f70636258,rev?*%
%TF.SameCoordinates,Original*%
%TF.FileFunction,Drillmap*%
%TF.FilePolarity,Positive*%
%FSLAX45Y45*%
G04 Gerber Fmt 4.5, Leading zero omitted, Abs format (unit mm)*
G04 Created by KiCad (PCBNEW 8.0.7) date 2025-05-25 12:58:01*
%MOMM*%
%LPD*%
G01*
G04 APERTURE LIST*
%ADD10C,0.050000*%
%ADD11C,0.200000*%
G04 APERTURE END LIST*
D10*
X12586000Y-17018000D02*
G75*
G02*
X12306000Y-17018000I-140000J0D01*
G01*
X12306000Y-17018000D02*
G75*
G02*
X12586000Y-17018000I140000J0D01*
G01*
X12586000Y-10160000D02*
G75*
G02*
X12306000Y-10160000I-140000J0D01*
G01*
X12306000Y-10160000D02*
G75*
G02*
X12586000Y-10160000I140000J0D01*
G01*
X9652000Y-9906000D02*
X12700000Y-9906000D01*
X12700000Y-17272000D01*
X9652000Y-17272000D01*
X9652000Y-9906000D01*
X10046000Y-10160000D02*
G75*
G02*
X9766000Y-10160000I-140000J0D01*
G01*
X9766000Y-10160000D02*
G75*
G02*
X10046000Y-10160000I140000J0D01*
G01*
X10046000Y-17018000D02*
G75*
G02*
X9766000Y-17018000I-140000J0D01*
G01*
X9766000Y-17018000D02*
G75*
G02*
X10046000Y-17018000I140000J0D01*
G01*
D11*
X9910277Y-17585984D02*
X9910277Y-17385984D01*
X9910277Y-17385984D02*
X9957896Y-17385984D01*
X9957896Y-17385984D02*
X9986467Y-17395508D01*
X9986467Y-17395508D02*
X10005515Y-17414555D01*
X10005515Y-17414555D02*
X10015039Y-17433603D01*
X10015039Y-17433603D02*
X10024563Y-17471698D01*
X10024563Y-17471698D02*
X10024563Y-17500270D01*
X10024563Y-17500270D02*
X10015039Y-17538365D01*
X10015039Y-17538365D02*
X10005515Y-17557412D01*
X10005515Y-17557412D02*
X9986467Y-17576460D01*
X9986467Y-17576460D02*
X9957896Y-17585984D01*
X9957896Y-17585984D02*
X9910277Y-17585984D01*
X10110277Y-17585984D02*
X10110277Y-17452650D01*
X10110277Y-17490746D02*
X10119801Y-17471698D01*
X10119801Y-17471698D02*
X10129324Y-17462174D01*
X10129324Y-17462174D02*
X10148372Y-17452650D01*
X10148372Y-17452650D02*
X10167420Y-17452650D01*
X10234086Y-17585984D02*
X10234086Y-17452650D01*
X10234086Y-17385984D02*
X10224563Y-17395508D01*
X10224563Y-17395508D02*
X10234086Y-17405031D01*
X10234086Y-17405031D02*
X10243610Y-17395508D01*
X10243610Y-17395508D02*
X10234086Y-17385984D01*
X10234086Y-17385984D02*
X10234086Y-17405031D01*
X10357896Y-17585984D02*
X10338848Y-17576460D01*
X10338848Y-17576460D02*
X10329324Y-17557412D01*
X10329324Y-17557412D02*
X10329324Y-17385984D01*
X10462658Y-17585984D02*
X10443610Y-17576460D01*
X10443610Y-17576460D02*
X10434086Y-17557412D01*
X10434086Y-17557412D02*
X10434086Y-17385984D01*
X10691229Y-17585984D02*
X10691229Y-17385984D01*
X10691229Y-17385984D02*
X10757896Y-17528841D01*
X10757896Y-17528841D02*
X10824563Y-17385984D01*
X10824563Y-17385984D02*
X10824563Y-17585984D01*
X11005515Y-17585984D02*
X11005515Y-17481222D01*
X11005515Y-17481222D02*
X10995991Y-17462174D01*
X10995991Y-17462174D02*
X10976944Y-17452650D01*
X10976944Y-17452650D02*
X10938848Y-17452650D01*
X10938848Y-17452650D02*
X10919801Y-17462174D01*
X11005515Y-17576460D02*
X10986467Y-17585984D01*
X10986467Y-17585984D02*
X10938848Y-17585984D01*
X10938848Y-17585984D02*
X10919801Y-17576460D01*
X10919801Y-17576460D02*
X10910277Y-17557412D01*
X10910277Y-17557412D02*
X10910277Y-17538365D01*
X10910277Y-17538365D02*
X10919801Y-17519317D01*
X10919801Y-17519317D02*
X10938848Y-17509793D01*
X10938848Y-17509793D02*
X10986467Y-17509793D01*
X10986467Y-17509793D02*
X11005515Y-17500270D01*
X11100753Y-17452650D02*
X11100753Y-17652650D01*
X11100753Y-17462174D02*
X11119801Y-17452650D01*
X11119801Y-17452650D02*
X11157896Y-17452650D01*
X11157896Y-17452650D02*
X11176944Y-17462174D01*
X11176944Y-17462174D02*
X11186467Y-17471698D01*
X11186467Y-17471698D02*
X11195991Y-17490746D01*
X11195991Y-17490746D02*
X11195991Y-17547889D01*
X11195991Y-17547889D02*
X11186467Y-17566936D01*
X11186467Y-17566936D02*
X11176944Y-17576460D01*
X11176944Y-17576460D02*
X11157896Y-17585984D01*
X11157896Y-17585984D02*
X11119801Y-17585984D01*
X11119801Y-17585984D02*
X11100753Y-17576460D01*
X11281705Y-17566936D02*
X11291229Y-17576460D01*
X11291229Y-17576460D02*
X11281705Y-17585984D01*
X11281705Y-17585984D02*
X11272182Y-17576460D01*
X11272182Y-17576460D02*
X11281705Y-17566936D01*
X11281705Y-17566936D02*
X11281705Y-17585984D01*
X11281705Y-17462174D02*
X11291229Y-17471698D01*
X11291229Y-17471698D02*
X11281705Y-17481222D01*
X11281705Y-17481222D02*
X11272182Y-17471698D01*
X11272182Y-17471698D02*
X11281705Y-17462174D01*
X11281705Y-17462174D02*
X11281705Y-17481222D01*
M02*
